<svg width="24" height="24" viewBox="0 0 24 24" fill="none" xmlns="http://www.w3.org/2000/svg">
<g clip-path="url(#clip0_67_14672)">
<path d="M5.50039 13.9536L5.49544 9.76145C5.49544 9.26279 5.67202 8.83687 6.02519 8.4837C6.37852 8.13037 6.80452 7.9537 7.30319 7.9537H16.6877C17.1864 7.9537 17.6124 8.13037 17.9657 8.4837C18.3189 8.83687 18.4954 9.26279 18.4954 9.76145L18.5004 13.9536C18.5004 14.4522 18.3238 14.8782 17.9706 15.2316C17.6173 15.5847 17.1913 15.7613 16.6926 15.7613H7.30814C6.80948 15.7613 6.38348 15.5847 6.03014 15.2316C5.67698 14.8782 5.50039 14.4522 5.50039 13.9536ZM11.2507 4.44225V3.25C11.2507 3.03717 11.3225 2.859 11.4662 2.7155C11.6097 2.57183 11.7879 2.5 12.0007 2.5C12.2135 2.5 12.3917 2.57183 12.5352 2.7155C12.6789 2.859 12.7507 3.03717 12.7507 3.25V4.44225C12.7507 4.65508 12.6789 4.83333 12.5352 4.977C12.3917 5.1205 12.2135 5.19225 12.0007 5.19225C11.7879 5.19225 11.6097 5.1205 11.4662 4.977C11.3225 4.83333 11.2507 4.65508 11.2507 4.44225ZM17.9766 5.42116L18.5689 4.82866C18.7074 4.69033 18.8814 4.6195 19.0911 4.61616C19.3006 4.613 19.4779 4.68383 19.6229 4.82866C19.7677 4.97366 19.8401 5.14933 19.8401 5.35566C19.8401 5.562 19.7677 5.73766 19.6229 5.88266L19.0304 6.47491C18.892 6.61341 18.718 6.68425 18.5084 6.68741C18.2987 6.69058 18.1214 6.61975 17.9766 6.47491C17.8318 6.33008 17.7594 6.15441 17.7594 5.94791C17.7594 5.74158 17.8318 5.566 17.9766 5.42116ZM11.2507 20.4423V19.25C11.2507 19.0372 11.3225 18.8589 11.4662 18.7153C11.6097 18.5718 11.7879 18.5 12.0007 18.5C12.2135 18.5 12.3917 18.5718 12.5352 18.7153C12.6789 18.8589 12.7507 19.0372 12.7507 19.25V20.4423C12.7507 20.6551 12.6789 20.8333 12.5352 20.9768C12.3917 21.1204 12.2135 21.1923 12.0007 21.1923C11.7879 21.1923 11.6097 21.1204 11.4662 20.9768C11.3225 20.8333 11.2507 20.6551 11.2507 20.4423ZM18.5737 18.9364L17.9815 18.344C17.843 18.2056 17.7721 18.0316 17.769 17.8219C17.7658 17.6123 17.8366 17.435 17.9815 17.2902C18.1263 17.1454 18.302 17.0729 18.5085 17.0729C18.7148 17.0729 18.8904 17.1454 19.0352 17.2902L19.6277 17.8825C19.766 18.021 19.8369 18.195 19.8402 18.4047C19.8434 18.6142 19.7725 18.7914 19.6277 18.9364C19.4827 19.0813 19.307 19.1537 19.1007 19.1537C18.8944 19.1537 18.7187 19.0813 18.5737 18.9364ZM4.96135 6.47491L4.36885 5.88266C4.23052 5.74416 4.15968 5.57008 4.15635 5.36041C4.15318 5.15091 4.22402 4.97366 4.36885 4.82866C4.51385 4.68383 4.68952 4.61141 4.89585 4.61141C5.10219 4.61141 5.27785 4.68383 5.42285 4.82866L6.0151 5.42116C6.1536 5.5595 6.22444 5.7335 6.2276 5.94316C6.23077 6.15283 6.15994 6.33008 6.0151 6.47491C5.87027 6.61975 5.6946 6.69216 5.4881 6.69216C5.28177 6.69216 5.10618 6.61975 4.96135 6.47491ZM4.3737 17.8825L4.9662 17.2902C5.10454 17.1517 5.27854 17.0809 5.4882 17.0777C5.69787 17.0745 5.87512 17.1454 6.01995 17.2902C6.16479 17.435 6.2372 17.6107 6.2372 17.8172C6.2372 18.0235 6.16479 18.1991 6.01995 18.344L5.4277 18.9364C5.2892 19.0748 5.11512 19.1456 4.90545 19.149C4.69595 19.1521 4.5187 19.0813 4.3737 18.9364C4.22887 18.7914 4.15645 18.6158 4.15645 18.4095C4.15645 18.2031 4.22887 18.0275 4.3737 17.8825ZM7.30814 14.2613H16.6926C16.7825 14.2613 16.8562 14.2325 16.9139 14.1748C16.9716 14.1171 17.0004 14.0434 17.0004 13.9536L16.9954 9.76145C16.9954 9.67179 16.9666 9.59804 16.9089 9.54021C16.8513 9.48254 16.7775 9.45371 16.6877 9.45371H7.30319C7.21336 9.45371 7.13961 9.48254 7.08194 9.54021C7.02427 9.59804 6.99544 9.67179 6.99544 9.76145L7.00039 13.9536C7.00039 14.0434 7.02922 14.1171 7.08689 14.1748C7.14456 14.2325 7.21831 14.2613 7.30814 14.2613Z" fill="white"/>
</g>
<defs>
<clipPath id="clip0_67_14672">
<rect width="24" height="24" fill="white"/>
</clipPath>
</defs>
</svg>
