<svg width="24" height="24" viewBox="0 0 24 24" fill="none" xmlns="http://www.w3.org/2000/svg">
<g clip-path="url(#clip0_9_8290)">
<path d="M13.2905 12.0005L9.21725 7.9275C9.07892 7.789 9.00808 7.61492 9.00475 7.40525C9.00158 7.19575 9.07242 7.0185 9.21725 6.8735C9.36225 6.72867 9.53792 6.65625 9.74425 6.65625C9.95058 6.65625 10.1262 6.72867 10.2712 6.8735L14.7655 11.3678C14.859 11.4614 14.925 11.5602 14.9635 11.664C15.002 11.7678 15.0213 11.88 15.0213 12.0005C15.0213 12.121 15.002 12.2332 14.9635 12.337C14.925 12.4408 14.859 12.5396 14.7655 12.6333L10.2712 17.1275C10.1327 17.2658 9.95867 17.3367 9.749 17.34C9.5395 17.3432 9.36225 17.2723 9.21725 17.1275C9.07242 16.9825 9 16.8068 9 16.6005C9 16.3942 9.07242 16.2185 9.21725 16.0735L13.2905 12.0005Z" fill="white"/>
</g>
<defs>
<clipPath id="clip0_9_8290">
<rect width="24" height="24" fill="white"/>
</clipPath>
</defs>
</svg>
