<svg width="24" height="24" viewBox="0 0 24 24" fill="none" xmlns="http://www.w3.org/2000/svg">
<g clip-path="url(#clip0_67_14666)">
<path d="M7 12.75H14C14.2125 12.75 14.3906 12.6781 14.5343 12.5343C14.6781 12.3904 14.75 12.2122 14.75 11.9997C14.75 11.7871 14.6781 11.609 14.5343 11.4655C14.3906 11.3218 14.2125 11.25 14 11.25H7C6.7875 11.25 6.60942 11.3219 6.46575 11.4658C6.32192 11.6096 6.25 11.7878 6.25 12.0003C6.25 12.2129 6.32192 12.391 6.46575 12.5345C6.60942 12.6782 6.7875 12.75 7 12.75ZM7 9.75H14C14.2125 9.75 14.3906 9.67808 14.5343 9.53425C14.6781 9.39042 14.75 9.21225 14.75 8.99975C14.75 8.78708 14.6781 8.609 14.5343 8.4655C14.3906 8.32183 14.2125 8.25 14 8.25H7C6.7875 8.25 6.60942 8.32192 6.46575 8.46575C6.32192 8.60958 6.25 8.78775 6.25 9.00025C6.25 9.21292 6.32192 9.391 6.46575 9.5345C6.60942 9.67817 6.7875 9.75 7 9.75ZM4.30775 19.5C3.80258 19.5 3.375 19.325 3.025 18.975C2.675 18.625 2.5 18.1974 2.5 17.6923V6.30775C2.5 5.80258 2.675 5.375 3.025 5.025C3.375 4.675 3.80258 4.5 4.30775 4.5H19.6923C20.1974 4.5 20.625 4.675 20.975 5.025C21.325 5.375 21.5 5.80258 21.5 6.30775V17.6923C21.5 18.1974 21.325 18.625 20.975 18.975C20.625 19.325 20.1974 19.5 19.6923 19.5H4.30775Z" fill="white"/>
</g>
<defs>
<clipPath id="clip0_67_14666">
<rect width="24" height="24" fill="white"/>
</clipPath>
</defs>
</svg>
