<svg width="24" height="24" viewBox="0 0 24 24" fill="none" xmlns="http://www.w3.org/2000/svg">
<g clip-path="url(#clip0_29_8808)">
<path d="M11.25 11.75V14C11.25 14.2128 11.3218 14.391 11.4655 14.5345C11.609 14.6782 11.7872 14.75 12 14.75C12.2128 14.75 12.391 14.6782 12.5345 14.5345C12.6782 14.391 12.75 14.2128 12.75 14V11.75H15C15.2128 11.75 15.391 11.6782 15.5345 11.5345C15.6782 11.391 15.75 11.2128 15.75 11C15.75 10.7872 15.6782 10.609 15.5345 10.4655C15.391 10.3218 15.2128 10.25 15 10.25H12.75V8C12.75 7.78717 12.6782 7.609 12.5345 7.4655C12.391 7.32183 12.2128 7.25 12 7.25C11.7872 7.25 11.609 7.32183 11.4655 7.4655C11.3218 7.609 11.25 7.78717 11.25 8V10.25H9C8.78717 10.25 8.609 10.3218 8.4655 10.4655C8.32183 10.609 8.25 10.7872 8.25 11C8.25 11.2128 8.32183 11.391 8.4655 11.5345C8.609 11.6782 8.78717 11.75 9 11.75H11.25ZM4.30775 18.5C3.80258 18.5 3.375 18.325 3.025 17.975C2.675 17.625 2.5 17.1974 2.5 16.6923V5.30775C2.5 4.80258 2.675 4.375 3.025 4.025C3.375 3.675 3.80258 3.5 4.30775 3.5H19.6923C20.1974 3.5 20.625 3.675 20.975 4.025C21.325 4.375 21.5 4.80258 21.5 5.30775V16.6923C21.5 17.1974 21.325 17.625 20.975 17.975C20.625 18.325 20.1974 18.5 19.6923 18.5H15.5V19.596C15.5 19.8538 15.4138 20.0689 15.2413 20.2413C15.0689 20.4138 14.8538 20.5 14.596 20.5H9.404C9.14617 20.5 8.93108 20.4138 8.75875 20.2413C8.58625 20.0689 8.5 19.8538 8.5 19.596V18.5H4.30775ZM4.30775 17H19.6923C19.7693 17 19.8398 16.9679 19.9038 16.9038C19.9679 16.8398 20 16.7692 20 16.6923V5.30775C20 5.23075 19.9679 5.16025 19.9038 5.09625C19.8398 5.03208 19.7693 5 19.6923 5H4.30775C4.23075 5 4.16025 5.03208 4.09625 5.09625C4.03208 5.16025 4 5.23075 4 5.30775V16.6923C4 16.7692 4.03208 16.8398 4.09625 16.9038C4.16025 16.9679 4.23075 17 4.30775 17Z" fill="white"/>
</g>
<defs>
<clipPath id="clip0_29_8808">
<rect width="24" height="24" fill="white"/>
</clipPath>
</defs>
</svg>
