<svg width="24" height="24" viewBox="0 0 24 24" fill="none" xmlns="http://www.w3.org/2000/svg">
<g clip-path="url(#clip0_67_14651)">
<path d="M7 12.75H14C14.2128 12.75 14.391 12.6782 14.5345 12.5345C14.6782 12.391 14.75 12.2128 14.75 12C14.75 11.7872 14.6782 11.609 14.5345 11.4655C14.391 11.3218 14.2128 11.25 14 11.25H7C6.78717 11.25 6.609 11.3218 6.4655 11.4655C6.32183 11.609 6.25 11.7872 6.25 12C6.25 12.2128 6.32183 12.391 6.4655 12.5345C6.609 12.6782 6.78717 12.75 7 12.75ZM7 9.75H14C14.2128 9.75 14.391 9.67817 14.5345 9.5345C14.6782 9.391 14.75 9.21283 14.75 9C14.75 8.78717 14.6782 8.609 14.5345 8.4655C14.391 8.32183 14.2128 8.25 14 8.25H7C6.78717 8.25 6.609 8.32183 6.4655 8.4655C6.32183 8.609 6.25 8.78717 6.25 9C6.25 9.21283 6.32183 9.391 6.4655 9.5345C6.609 9.67817 6.78717 9.75 7 9.75ZM4.30775 19.5C3.80258 19.5 3.375 19.325 3.025 18.975C2.675 18.625 2.5 18.1974 2.5 17.6923V6.30775C2.5 5.80258 2.675 5.375 3.025 5.025C3.375 4.675 3.80258 4.5 4.30775 4.5H19.6923C20.1974 4.5 20.625 4.675 20.975 5.025C21.325 5.375 21.5 5.80258 21.5 6.30775V17.6923C21.5 18.1974 21.325 18.625 20.975 18.975C20.625 19.325 20.1974 19.5 19.6923 19.5H4.30775ZM4.30775 18H19.6923C19.7693 18 19.8398 17.9679 19.9038 17.9038C19.9679 17.8398 20 17.7692 20 17.6923V6.30775C20 6.23075 19.9679 6.16025 19.9038 6.09625C19.8398 6.03208 19.7693 6 19.6923 6H4.30775C4.23075 6 4.16025 6.03208 4.09625 6.09625C4.03208 6.16025 4 6.23075 4 6.30775V17.6923C4 17.7692 4.03208 17.8398 4.09625 17.9038C4.16025 17.9679 4.23075 18 4.30775 18Z" fill="white"/>
</g>
<defs>
<clipPath id="clip0_67_14651">
<rect width="24" height="24" fill="white"/>
</clipPath>
</defs>
</svg>
