<svg width="24" height="24" viewBox="0 0 24 24" fill="none" xmlns="http://www.w3.org/2000/svg">
<g clip-path="url(#clip0_67_14678)">
<path d="M6.73075 20.5H5.30775C4.80258 20.5 4.375 20.325 4.025 19.975C3.675 19.625 3.5 19.1974 3.5 18.6923V12C3.5 10.8205 3.72308 9.71542 4.16925 8.68475C4.61542 7.65392 5.22183 6.75517 5.9885 5.9885C6.75517 5.22183 7.65392 4.61542 8.68475 4.16925C9.71542 3.72308 10.8205 3.5 12 3.5C13.1795 3.5 14.2846 3.72308 15.3152 4.16925C16.3461 4.61542 17.2448 5.22183 18.0115 5.9885C18.7782 6.75517 19.3846 7.65392 19.8307 8.68475C20.2769 9.71542 20.5 10.8205 20.5 12V18.6923C20.5 19.1974 20.325 19.625 19.975 19.975C19.625 20.325 19.1974 20.5 18.6923 20.5H17.2693C16.7706 20.5 16.3447 20.3234 15.9915 19.9703C15.6382 19.6169 15.4615 19.1909 15.4615 18.6923V15.2308C15.4615 14.7321 15.6382 14.3062 15.9915 13.953C16.3447 13.5997 16.7706 13.423 17.2693 13.423H19V12C19 10.05 18.3208 8.39583 16.9625 7.0375C15.6042 5.67917 13.95 5 12 5C10.05 5 8.39583 5.67917 7.0375 7.0375C5.67917 8.39583 5 10.05 5 12V13.423H6.73075C7.22942 13.423 7.65533 13.5997 8.0085 13.953C8.36183 14.3062 8.5385 14.7321 8.5385 15.2308V18.6923C8.5385 19.1909 8.36183 19.6169 8.0085 19.9703C7.65533 20.3234 7.22942 20.5 6.73075 20.5ZM6.73075 14.923H5V18.6923C5 18.7692 5.03208 18.8398 5.09625 18.9038C5.16025 18.9679 5.23075 19 5.30775 19H6.73075C6.82042 19 6.89417 18.9712 6.952 18.9135C7.00967 18.8558 7.0385 18.7821 7.0385 18.6923V15.2308C7.0385 15.1411 7.00967 15.0673 6.952 15.0095C6.89417 14.9518 6.82042 14.923 6.73075 14.923ZM16.9615 15.2308V18.6923C16.9615 18.7821 16.9903 18.8558 17.048 18.9135C17.1058 18.9712 17.1796 19 17.2693 19H18.6923C18.7692 19 18.8398 18.9679 18.9038 18.9038C18.9679 18.8398 19 18.7692 19 18.6923V14.923H17.2693C17.1796 14.923 17.1058 14.9518 17.048 15.0095C16.9903 15.0673 16.9615 15.1411 16.9615 15.2308ZM6.73075 14.923H7.0385H5H6.73075Z" fill="white"/>
</g>
<defs>
<clipPath id="clip0_67_14678">
<rect width="24" height="24" fill="white"/>
</clipPath>
</defs>
</svg>
