<svg width="24" height="24" viewBox="0 0 24 24" fill="none" xmlns="http://www.w3.org/2000/svg">
<g clip-path="url(#clip0_123_9036)">
<path d="M12 21.5003C13.1795 21.5003 14.2846 21.2772 15.3152 20.831C16.3461 20.3849 17.2448 19.7784 18.0115 19.0118C18.7782 18.2451 19.3846 17.3464 19.8307 16.3155C20.2769 15.2849 20.5 14.1798 20.5 13.0003C20.5 11.8208 20.2769 10.7157 19.8307 9.68503C19.3846 8.65419 18.7782 7.75544 18.0115 6.98877C17.2448 6.22211 16.3461 5.61569 15.3152 5.16953C14.2846 4.72336 13.1795 4.50028 12 4.50028H11.7345L12.8155 3.41953C12.9603 3.27469 13.0327 3.10161 13.0327 2.90028C13.0327 2.69894 12.9603 2.52078 12.8155 2.36578C12.6667 2.21694 12.49 2.14003 12.2855 2.13503C12.0812 2.12986 11.9014 2.20161 11.7463 2.35028L9.479 4.60803C9.3085 4.77853 9.22325 4.98944 9.22325 5.24078C9.22325 5.49194 9.3085 5.70278 9.479 5.87328L11.727 8.13102C11.8757 8.28619 12.0522 8.36119 12.2567 8.35603C12.4612 8.35086 12.6411 8.27069 12.7962 8.11553C12.9411 7.96053 13.0135 7.78236 13.0135 7.58103C13.0135 7.37969 12.9411 7.20661 12.7962 7.06178L11.7345 6.00028H12C13.95 6.00028 15.6042 6.67944 16.9625 8.03778C18.3208 9.39611 19 11.0503 19 13.0003C19 14.9503 18.3208 16.6044 16.9625 17.9628C15.6042 19.3211 13.95 20.0003 12 20.0003C10.1948 20.0003 8.63075 19.4013 7.30775 18.2033C5.98458 17.0051 5.22883 15.5086 5.0405 13.7138C5.0135 13.5111 4.92567 13.3415 4.777 13.205C4.62817 13.0685 4.4525 13.0003 4.25 13.0003C4.0475 13.0003 3.87183 13.0659 3.723 13.1973C3.57433 13.3288 3.51025 13.4907 3.53075 13.683C3.71292 15.9035 4.61225 17.7615 6.22875 19.257C7.84542 20.7525 9.76917 21.5003 12 21.5003Z" fill="white"/>
</g>
<defs>
<clipPath id="clip0_123_9036">
<rect width="24" height="24" fill="white"/>
</clipPath>
</defs>
</svg>
