<svg width="24" height="24" viewBox="0 0 24 24" fill="none" xmlns="http://www.w3.org/2000/svg">
<g clip-path="url(#clip0_67_12999)">
<path d="M2.5 21.0385V4.30775C2.5 3.80258 2.675 3.375 3.025 3.025C3.375 2.675 3.80258 2.5 4.30775 2.5H19.6923C20.1974 2.5 20.625 2.675 20.975 3.025C21.325 3.375 21.5 3.80258 21.5 4.30775V15.6923C21.5 16.1974 21.325 16.625 20.975 16.975C20.625 17.325 20.1974 17.5 19.6923 17.5H6.0385L2.5 21.0385ZM6.25 13.75H13.75V12.25H6.25V13.75ZM6.25 10.75H17.75V9.25H6.25V10.75ZM6.25 7.75H17.75V6.25H6.25V7.75Z" fill="white"/>
</g>
<defs>
<clipPath id="clip0_67_12999">
<rect width="24" height="24" fill="white"/>
</clipPath>
</defs>
</svg>
