<svg width="24" height="24" viewBox="0 0 24 24" fill="none" xmlns="http://www.w3.org/2000/svg">
<g clip-path="url(#clip0_29_8870)">
<path d="M12.0385 13.6147L9.30377 16.3495C9.4436 16.5995 9.54326 16.8645 9.60277 17.1447C9.66243 17.4249 9.69227 17.7098 9.69227 17.9995C9.69227 19.0043 9.3346 19.8645 8.61927 20.58C7.90393 21.2955 7.04402 21.6532 6.03952 21.6532C5.03502 21.6532 4.17477 21.2955 3.45877 20.5802C2.74277 19.8649 2.38477 19.005 2.38477 18.0005C2.38477 16.996 2.74252 16.1357 3.45802 15.4197C4.17352 14.7037 5.03368 14.3457 6.03852 14.3457C6.32818 14.3457 6.6131 14.3755 6.89327 14.435C7.17343 14.4946 7.43852 14.5944 7.68852 14.7342L10.423 11.9995L7.68852 9.2647C7.43852 9.40454 7.17343 9.50429 6.89327 9.56395C6.6131 9.62345 6.32818 9.6532 6.03852 9.6532C5.03368 9.6532 4.17352 9.29554 3.45802 8.5802C2.74252 7.86487 2.38477 7.00495 2.38477 6.00045C2.38477 4.99595 2.74243 4.1357 3.45777 3.4197C4.1731 2.7037 5.03302 2.3457 6.03752 2.3457C7.04202 2.3457 7.90227 2.70345 8.61827 3.41895C9.33427 4.13445 9.69227 4.99462 9.69227 5.99945C9.69227 6.28912 9.66243 6.57404 9.60277 6.8542C9.54326 7.13437 9.4436 7.39945 9.30377 7.64945L20.4845 18.8302C20.8512 19.1969 20.9333 19.6116 20.7308 20.0745C20.5283 20.5373 20.1705 20.7687 19.6575 20.7687C19.509 20.7687 19.3646 20.7388 19.2243 20.679C19.0841 20.6193 18.9606 20.5364 18.8538 20.4302L12.0385 13.6147ZM14.8078 10.8457L13.1923 9.2302L18.8538 3.5687C18.9616 3.46254 19.0862 3.37962 19.2275 3.31995C19.3688 3.26012 19.5135 3.2302 19.6615 3.2302C20.173 3.2302 20.5272 3.4642 20.724 3.9322C20.9208 4.40004 20.8359 4.81729 20.4693 5.18395L14.8078 10.8457ZM6.03852 8.1532C6.63085 8.1532 7.13793 7.94237 7.55977 7.5207C7.98143 7.09887 8.19227 6.59179 8.19227 5.99945C8.19227 5.40712 7.98143 4.90004 7.55977 4.4782C7.13793 4.05654 6.63085 3.8457 6.03852 3.8457C5.44618 3.8457 4.9391 4.05654 4.51727 4.4782C4.09543 4.90004 3.88452 5.40712 3.88452 5.99945C3.88452 6.59179 4.09543 7.09887 4.51727 7.5207C4.9391 7.94237 5.44618 8.1532 6.03852 8.1532ZM12.0385 12.2495C12.1052 12.2495 12.1635 12.2245 12.2135 12.1745C12.2635 12.1245 12.2885 12.0661 12.2885 11.9995C12.2885 11.9328 12.2635 11.8745 12.2135 11.8245C12.1635 11.7745 12.1052 11.7495 12.0385 11.7495C11.9718 11.7495 11.9135 11.7745 11.8635 11.8245C11.8135 11.8745 11.7885 11.9328 11.7885 11.9995C11.7885 12.0661 11.8135 12.1245 11.8635 12.1745C11.9135 12.2245 11.9718 12.2495 12.0385 12.2495ZM6.03852 20.1532C6.63085 20.1532 7.13793 19.9424 7.55977 19.5207C7.98143 19.0989 8.19227 18.5918 8.19227 17.9995C8.19227 17.4071 7.98143 16.9 7.55977 16.4782C7.13793 16.0565 6.63085 15.8457 6.03852 15.8457C5.44618 15.8457 4.9391 16.0565 4.51727 16.4782C4.09543 16.9 3.88452 17.4071 3.88452 17.9995C3.88452 18.5918 4.09543 19.0989 4.51727 19.5207C4.9391 19.9424 5.44618 20.1532 6.03852 20.1532Z" fill="white"/>
</g>
<defs>
<clipPath id="clip0_29_8870">
<rect width="24" height="24" fill="white"/>
</clipPath>
</defs>
</svg>
