<svg width="24" height="24" viewBox="0 0 24 24" fill="none" xmlns="http://www.w3.org/2000/svg">
<g clip-path="url(#clip0_101_10882)">
<path d="M9.54921 14.9475L17.9167 6.58003C18.1445 6.3522 18.4117 6.23828 18.7182 6.23828C19.0247 6.23828 19.292 6.3522 19.52 6.58003C19.7478 6.80803 19.8617 7.07845 19.8617 7.39128C19.8617 7.70411 19.7478 7.97453 19.52 8.20253L10.351 17.3905C10.123 17.6184 9.85571 17.7323 9.54921 17.7323C9.24271 17.7323 8.97546 17.6184 8.74746 17.3905L4.45946 13.1025C4.23163 12.8745 4.12088 12.6041 4.12721 12.2913C4.13354 11.9784 4.25063 11.708 4.47846 11.48C4.70646 11.2522 4.97688 11.1383 5.28971 11.1383C5.60254 11.1383 5.87296 11.2522 6.10096 11.48L9.54921 14.9475Z" fill="white"/>
</g>
<defs>
<clipPath id="clip0_101_10882">
<rect width="24" height="24" fill="white"/>
</clipPath>
</defs>
</svg>
