<svg width="24" height="24" viewBox="0 0 24 24" fill="none" xmlns="http://www.w3.org/2000/svg">
<g clip-path="url(#clip0_9_8385)">
<path fill-rule="evenodd" clip-rule="evenodd" d="M11.58 1.80735C12.125 1.72935 12.68 1.80435 13.186 2.02135C13.692 2.23935 14.128 2.59135 14.446 3.04135C14.765 3.48935 14.954 4.01735 14.993 4.56635C15.031 5.11635 14.918 5.66535 14.665 6.15435C14.413 6.64335 14.031 7.05335 13.561 7.33935C13.307 7.49335 13.034 7.60935 12.751 7.68235V8.38735L19.931 13.4134C20.198 13.6004 20.314 13.9404 20.215 14.2534C20.117 14.5654 19.827 14.7774 19.5 14.7774H18V17.7774C18 18.3294 17.552 18.7774 17 18.7774H15V21.7774H14V20.7774H13V21.7774H12V20.7774H11V21.7774H10V20.7774H9V21.7774H8V20.7774H7V21.7774H6V14.7774H4.5C4.173 14.7774 3.883 14.5654 3.785 14.2534C3.686 13.9404 3.802 13.6004 4.07 13.4134L11.25 8.38735V7.02735C11.25 6.61335 11.586 6.27735 12 6.27735C12.275 6.27735 12.545 6.20135 12.78 6.05835C13.015 5.91535 13.207 5.71035 13.333 5.46535C13.459 5.22135 13.516 4.94635 13.496 4.67235C13.477 4.39735 13.382 4.13335 13.223 3.90935C13.063 3.68435 12.846 3.50935 12.593 3.39935C12.34 3.29035 12.063 3.25335 11.79 3.29235C11.518 3.33035 11.26 3.44335 11.048 3.61835C10.835 3.79235 10.675 4.02235 10.584 4.28235C10.447 4.67335 10.02 4.87935 9.629 4.74235C9.238 4.60635 9.031 4.17835 9.168 3.78735C9.35 3.26735 9.671 2.80735 10.096 2.45935C10.521 2.10935 11.035 1.88435 11.58 1.80735ZM15 14.7774H16.5V17.2774H15V14.7774ZM17.12 13.2774H6.88L12 9.69235L17.12 13.2774ZM7.5 14.7774H13.5V19.2774H7.5V14.7774Z" fill="white"/>
</g>
<defs>
<clipPath id="clip0_9_8385">
<rect width="24" height="24" fill="white"/>
</clipPath>
</defs>
</svg>
