<svg width="24" height="24" viewBox="0 0 24 24" fill="none" xmlns="http://www.w3.org/2000/svg">
<g clip-path="url(#clip0_97_4447)">
<path d="M5.30775 10.5C4.80258 10.5 4.375 10.325 4.025 9.975C3.675 9.625 3.5 9.19742 3.5 8.69225V5.30775C3.5 4.80258 3.675 4.375 4.025 4.025C4.375 3.675 4.80258 3.5 5.30775 3.5H8.69225C9.19742 3.5 9.625 3.675 9.975 4.025C10.325 4.375 10.5 4.80258 10.5 5.30775V8.69225C10.5 9.19742 10.325 9.625 9.975 9.975C9.625 10.325 9.19742 10.5 8.69225 10.5H5.30775ZM5.30775 20.5C4.80258 20.5 4.375 20.325 4.025 19.975C3.675 19.625 3.5 19.1974 3.5 18.6923V15.3077C3.5 14.8026 3.675 14.375 4.025 14.025C4.375 13.675 4.80258 13.5 5.30775 13.5H8.69225C9.19742 13.5 9.625 13.675 9.975 14.025C10.325 14.375 10.5 14.8026 10.5 15.3077V18.6923C10.5 19.1974 10.325 19.625 9.975 19.975C9.625 20.325 9.19742 20.5 8.69225 20.5H5.30775ZM15.3077 10.5C14.8026 10.5 14.375 10.325 14.025 9.975C13.675 9.625 13.5 9.19742 13.5 8.69225V5.30775C13.5 4.80258 13.675 4.375 14.025 4.025C14.375 3.675 14.8026 3.5 15.3077 3.5H18.6923C19.1974 3.5 19.625 3.675 19.975 4.025C20.325 4.375 20.5 4.80258 20.5 5.30775V8.69225C20.5 9.19742 20.325 9.625 19.975 9.975C19.625 10.325 19.1974 10.5 18.6923 10.5H15.3077ZM15.3077 20.5C14.8026 20.5 14.375 20.325 14.025 19.975C13.675 19.625 13.5 19.1974 13.5 18.6923V15.3077C13.5 14.8026 13.675 14.375 14.025 14.025C14.375 13.675 14.8026 13.5 15.3077 13.5H18.6923C19.1974 13.5 19.625 13.675 19.975 14.025C20.325 14.375 20.5 14.8026 20.5 15.3077V18.6923C20.5 19.1974 20.325 19.625 19.975 19.975C19.625 20.325 19.1974 20.5 18.6923 20.5H15.3077Z" fill="white"/>
</g>
<defs>
<clipPath id="clip0_97_4447">
<rect width="24" height="24" fill="white"/>
</clipPath>
</defs>
</svg>
