<svg width="24" height="24" viewBox="0 0 24 24" fill="none" xmlns="http://www.w3.org/2000/svg">
<g clip-path="url(#clip0_9_8361)">
<path fill-rule="evenodd" clip-rule="evenodd" d="M12 7.52818L11.228 7.06418L7.042 4.55318L2.5 7.58118V13.8882L12 19.0682L21.5 13.8872V7.58118L16.958 4.55318L12.772 7.06418L12 7.52818ZM12 5.77818L7.814 3.26618C7.317 2.96818 6.692 2.98318 6.21 3.30518L1.668 6.33318C1.251 6.61118 1 7.07818 1 7.58118V13.8882C1 14.4362 1.3 14.9422 1.782 15.2042L11.282 20.3862C11.729 20.6302 12.271 20.6302 12.718 20.3862L22.218 15.2042C22.7 14.9422 23 14.4362 23 13.8882V7.58118C23 7.07918 22.75 6.61118 22.332 6.33318L17.79 3.30518C17.308 2.98318 16.683 2.96818 16.186 3.26618L12 5.77818ZM15.5 12.0282C15.5 12.7182 14.94 13.2782 14.25 13.2782C13.56 13.2782 13 12.7182 13 12.0282C13 11.3382 13.56 10.7782 14.25 10.7782C14.94 10.7782 15.5 11.3382 15.5 12.0282ZM7 7.77818C6.586 7.77818 6.25 8.11418 6.25 8.52818V10.0282H4.75C4.336 10.0282 4 10.3642 4 10.7782C4 11.1922 4.336 11.5282 4.75 11.5282H6.25V13.0282C6.25 13.4422 6.586 13.7782 7 13.7782C7.414 13.7782 7.75 13.4422 7.75 13.0282V11.5282H9.25C9.664 11.5282 10 11.1922 10 10.7782C10 10.3642 9.664 10.0282 9.25 10.0282H7.75V8.52818C7.75 8.11418 7.414 7.77818 7 7.77818ZM17.75 10.7782C18.44 10.7782 19 10.2182 19 9.52818C19 8.83818 18.44 8.27818 17.75 8.27818C17.06 8.27818 16.5 8.83818 16.5 9.52818C16.5 10.2182 17.06 10.7782 17.75 10.7782Z" fill="white"/>
</g>
<defs>
<clipPath id="clip0_9_8361">
<rect width="24" height="24" fill="white"/>
</clipPath>
</defs>
</svg>
