<svg width="24" height="24" viewBox="0 0 24 24" fill="none" xmlns="http://www.w3.org/2000/svg">
<g clip-path="url(#clip0_9_8207)">
<path fill-rule="evenodd" clip-rule="evenodd" d="M22.1479 11.146C22.2179 11.2159 22.2657 11.3049 22.2851 11.402C22.3045 11.499 22.2946 11.5996 22.2569 11.691C22.2191 11.7824 22.155 11.8606 22.0728 11.9156C21.9905 11.9706 21.8938 12 21.7949 12H20.0019V19.5C20.0019 19.8978 19.8438 20.2794 19.5625 20.5607C19.2812 20.842 18.8997 21 18.5019 21H13.5019V14H10.5019V21H5.50188C5.10405 21 4.72252 20.842 4.44122 20.5607C4.15991 20.2794 4.00188 19.8978 4.00188 19.5V12H2.20888C2.10994 12 2.01324 11.9706 1.931 11.9156C1.84877 11.8606 1.7847 11.7824 1.7469 11.691C1.70911 11.5996 1.69929 11.499 1.71869 11.402C1.73809 11.3049 1.78583 11.2159 1.85588 11.146L12.0019 1L22.1479 11.146ZM18.5019 9.621L12.0019 3.121L5.50188 9.621V19.5H9.00188V13C9.00188 12.8674 9.05456 12.7402 9.14832 12.6464C9.24209 12.5527 9.36927 12.5 9.50188 12.5H14.5019C14.6345 12.5 14.7617 12.5527 14.8554 12.6464C14.9492 12.7402 15.0019 12.8674 15.0019 13V19.5H18.5019V9.621Z" fill="white"/>
</g>
<defs>
<clipPath id="clip0_9_8207">
<rect width="24" height="24" fill="white"/>
</clipPath>
</defs>
</svg>
