<svg width="24" height="24" viewBox="0 0 24 24" fill="none" xmlns="http://www.w3.org/2000/svg">
<g clip-path="url(#clip0_9_8245)">
<path fill-rule="evenodd" clip-rule="evenodd" d="M13.847 5.24814C12.209 4.80014 10.463 4.96314 8.937 5.70614C7.853 6.23314 6.933 7.02614 6.254 8.00014H8.5C9.052 8.00014 9.5 8.44814 9.5 9.00014C9.5 9.55214 9.052 10.0001 8.5 10.0001H3V4.50014C3 3.94814 3.448 3.50014 4 3.50014C4.552 3.50014 5 3.94814 5 4.50014V6.34314C5.823 5.32514 6.865 4.49014 8.061 3.90814C10.024 2.95214 12.268 2.74314 14.374 3.31814C16.48 3.89514 18.305 5.21714 19.509 7.03814C20.713 8.86014 21.213 11.0581 20.917 13.2211C20.621 15.3841 19.548 17.3661 17.899 18.7971C16.25 20.2281 14.137 21.0111 11.954 21.0001C9.77 20.9891 7.665 20.1841 6.031 18.7361C4.397 17.2881 3.345 15.2951 3.071 13.1291C3.001 12.5811 3.39 12.0801 3.938 12.0111C4.486 11.9411 4.986 12.3301 5.055 12.8781C5.268 14.5631 6.086 16.1131 7.357 17.2391C8.629 18.3651 10.266 18.9911 11.964 18.9991C13.662 19.0091 15.306 18.3991 16.588 17.2871C17.871 16.1741 18.705 14.6321 18.935 12.9501C19.165 11.2671 18.776 9.55814 17.84 8.14114C16.904 6.72414 15.485 5.69614 13.847 5.24814ZM13 7.50014C13 6.94814 12.552 6.50014 12 6.50014C11.448 6.50014 11 6.94814 11 7.50014V12.5151L11.419 12.8141L14.919 15.3141C15.369 15.6341 15.993 15.5311 16.314 15.0811C16.634 14.6311 16.531 14.0071 16.081 13.6861L13 11.4861V7.50014Z" fill="white"/>
</g>
<defs>
<clipPath id="clip0_9_8245">
<rect width="24" height="24" fill="white"/>
</clipPath>
</defs>
</svg>
