<svg width="24" height="24" viewBox="0 0 24 24" fill="none" xmlns="http://www.w3.org/2000/svg">
<g clip-path="url(#clip0_97_4453)">
<path d="M5.30775 10.8086C4.80258 10.8086 4.375 10.6336 4.025 10.2836C3.675 9.93359 3.5 9.50601 3.5 9.00084V5.61634C3.5 5.11118 3.675 4.68359 4.025 4.33359C4.375 3.98359 4.80258 3.80859 5.30775 3.80859H18.6923C19.1974 3.80859 19.625 3.98359 19.975 4.33359C20.325 4.68359 20.5 5.11118 20.5 5.61634V9.00084C20.5 9.50601 20.325 9.93359 19.975 10.2836C19.625 10.6336 19.1974 10.8086 18.6923 10.8086H5.30775ZM5.30775 9.30859H18.6923C18.7692 9.30859 18.8398 9.27651 18.9038 9.21234C18.9679 9.14834 19 9.07784 19 9.00084V5.61634C19 5.53934 18.9679 5.46884 18.9038 5.40484C18.8398 5.34068 18.7692 5.30859 18.6923 5.30859H5.30775C5.23075 5.30859 5.16025 5.34068 5.09625 5.40484C5.03208 5.46884 5 5.53934 5 5.61634V9.00084C5 9.07784 5.03208 9.14834 5.09625 9.21234C5.16025 9.27651 5.23075 9.30859 5.30775 9.30859ZM5.30775 20.1931C4.80258 20.1931 4.375 20.0181 4.025 19.6681C3.675 19.3181 3.5 18.8905 3.5 18.3853V15.0008C3.5 14.4957 3.675 14.0681 4.025 13.7181C4.375 13.3681 4.80258 13.1931 5.30775 13.1931H18.6923C19.1974 13.1931 19.625 13.3681 19.975 13.7181C20.325 14.0681 20.5 14.4957 20.5 15.0008V18.3853C20.5 18.8905 20.325 19.3181 19.975 19.6681C19.625 20.0181 19.1974 20.1931 18.6923 20.1931H5.30775ZM5.30775 18.6931H18.6923C18.7692 18.6931 18.8398 18.661 18.9038 18.5968C18.9679 18.5328 19 18.4623 19 18.3853V15.0008C19 14.9238 18.9679 14.8533 18.9038 14.7893C18.8398 14.7252 18.7692 14.6931 18.6923 14.6931H5.30775C5.23075 14.6931 5.16025 14.7252 5.09625 14.7893C5.03208 14.8533 5 14.9238 5 15.0008V18.3853C5 18.4623 5.03208 18.5328 5.09625 18.5968C5.16025 18.661 5.23075 18.6931 5.30775 18.6931Z" fill="white"/>
</g>
<defs>
<clipPath id="clip0_97_4453">
<rect width="24" height="24" fill="white"/>
</clipPath>
</defs>
</svg>
