<svg width="24" height="24" viewBox="0 0 24 24" fill="none" xmlns="http://www.w3.org/2000/svg">
<g clip-path="url(#clip0_9_8355)">
<path fill-rule="evenodd" clip-rule="evenodd" d="M5.636 5.41356C5.929 5.12056 5.929 4.64556 5.636 4.35356C5.343 4.05956 4.868 4.05956 4.576 4.35356C3.6 5.32756 2.826 6.48556 2.299 7.75956C1.772 9.03356 1.5 10.3996 1.5 11.7776C1.5 13.1566 1.772 14.5216 2.3 15.7956C2.827 17.0696 3.6 18.2276 4.575 19.2026C4.868 19.4956 5.343 19.4956 5.636 19.2026C5.929 18.9096 5.929 18.4346 5.636 18.1416C4.8 17.3056 4.137 16.3136 3.686 15.2216C3.232 14.1296 3 12.9596 3 11.7776C3 10.5956 3.233 9.42556 3.685 8.33356C4.137 7.24156 4.8 6.24956 5.636 5.41356ZM8.464 7.18156C8.757 7.47356 8.757 7.94856 8.464 8.24156C8 8.70556 7.632 9.25756 7.381 9.86356C7.129 10.4706 7 11.1206 7 11.7776C7 12.4336 7.13 13.0836 7.38 13.6906C7.632 14.2976 8 14.8486 8.464 15.3126C8.757 15.6056 8.757 16.0806 8.464 16.3726C8.172 16.6666 7.697 16.6666 7.404 16.3726C6.8 15.7696 6.321 15.0526 5.994 14.2646C5.669 13.4776 5.5 12.6306 5.5 11.7776C5.5 10.9236 5.668 10.0776 5.995 9.28956C6.321 8.50156 6.8 7.78456 7.404 7.18156C7.697 6.88856 8.172 6.88856 8.464 7.18156ZM15.536 7.18156C15.828 6.88856 16.303 6.88856 16.596 7.18156C17.816 8.40056 18.5 10.0536 18.5 11.7776C18.5 13.5016 17.815 15.1546 16.596 16.3736C16.303 16.6666 15.828 16.6666 15.536 16.3736C15.243 16.0806 15.243 15.6056 15.536 15.3136C16.473 14.3746 17 13.1026 17 11.7776C17 10.4526 16.473 9.17956 15.536 8.24156C15.243 7.94856 15.243 7.47356 15.536 7.18156ZM18.364 4.35256C18.657 4.05956 19.132 4.05956 19.424 4.35256C21.395 6.32256 22.5 8.99256 22.5 11.7776C22.5 14.5626 21.394 17.2336 19.425 19.2026C19.132 19.4956 18.657 19.4956 18.364 19.2026C18.071 18.9096 18.071 18.4346 18.364 18.1416C20.052 16.4536 21 14.1646 21 11.7776C21 9.39056 20.052 7.10156 18.364 5.41356C18.071 5.12056 18.071 4.64556 18.364 4.35356V4.35256ZM12 13.7776C13.105 13.7776 14 12.8826 14 11.7776C14 10.6736 13.105 9.77756 12 9.77756C10.895 9.77756 10 10.6736 10 11.7776C10 12.8826 10.895 13.7776 12 13.7776Z" fill="white"/>
</g>
<defs>
<clipPath id="clip0_9_8355">
<rect width="24" height="24" fill="white"/>
</clipPath>
</defs>
</svg>
