<svg width="24" height="24" viewBox="0 0 24 24" fill="none" xmlns="http://www.w3.org/2000/svg">
<g clip-path="url(#clip0_9_8284)">
<path fill-rule="evenodd" clip-rule="evenodd" d="M8 21V9.282C7.99997 8.4483 8.26044 7.63542 8.745 6.957L13 1L13.551 1.33C14.1121 1.66654 14.5478 2.17729 14.7917 2.78443C15.0356 3.39158 15.0744 4.06181 14.902 4.693L14 8H19.192C19.6738 7.99996 20.1469 8.12778 20.5631 8.37042C20.9793 8.61305 21.3237 8.9618 21.561 9.38105C21.7983 9.8003 21.9202 10.275 21.914 10.7568C21.9079 11.2385 21.774 11.7099 21.526 12.123L21 13L21.165 13.413C21.4198 14.0503 21.5064 14.7424 21.4164 15.4228C21.3263 16.1031 21.0628 16.7489 20.651 17.298L20.5 17.5V18C20.5 18.7956 20.1839 19.5587 19.6213 20.1213C19.0587 20.6839 18.2956 21 17.5 21H8ZM4.5 9C4.10218 9 3.72064 9.15804 3.43934 9.43934C3.15804 9.72064 3 10.1022 3 10.5V19.5C3 19.8978 3.15804 20.2794 3.43934 20.5607C3.72064 20.842 4.10218 21 4.5 21H7V9H4.5Z" fill="white"/>
</g>
<defs>
<clipPath id="clip0_9_8284">
<rect width="24" height="24" fill="white"/>
</clipPath>
</defs>
</svg>
