<svg width="24" height="24" viewBox="0 0 24 24" fill="none" xmlns="http://www.w3.org/2000/svg">
<g clip-path="url(#clip0_97_4459)">
<path d="M5.30775 10.8086C4.80258 10.8086 4.375 10.6336 4.025 10.2836C3.675 9.93359 3.5 9.50601 3.5 9.00084V5.61634C3.5 5.11118 3.675 4.68359 4.025 4.33359C4.375 3.98359 4.80258 3.80859 5.30775 3.80859H18.6923C19.1974 3.80859 19.625 3.98359 19.975 4.33359C20.325 4.68359 20.5 5.11118 20.5 5.61634V9.00084C20.5 9.50601 20.325 9.93359 19.975 10.2836C19.625 10.6336 19.1974 10.8086 18.6923 10.8086H5.30775ZM5.30775 20.1931C4.80258 20.1931 4.375 20.0181 4.025 19.6681C3.675 19.3181 3.5 18.8905 3.5 18.3853V15.0008C3.5 14.4957 3.675 14.0681 4.025 13.7181C4.375 13.3681 4.80258 13.1931 5.30775 13.1931H18.6923C19.1974 13.1931 19.625 13.3681 19.975 13.7181C20.325 14.0681 20.5 14.4957 20.5 15.0008V18.3853C20.5 18.8905 20.325 19.3181 19.975 19.6681C19.625 20.0181 19.1974 20.1931 18.6923 20.1931H5.30775Z" fill="white"/>
</g>
<defs>
<clipPath id="clip0_97_4459">
<rect width="24" height="24" fill="white"/>
</clipPath>
</defs>
</svg>
