<svg width="24" height="24" viewBox="0 0 24 24" fill="none" xmlns="http://www.w3.org/2000/svg">
<g clip-path="url(#clip0_117_8041)">
<path d="M16.9 10.5673C17.114 10.4301 17.221 10.241 17.221 10C17.221 9.759 17.114 9.56992 16.9 9.43275L12.5442 6.63475C12.3199 6.48092 12.0898 6.46842 11.8538 6.59725C11.6179 6.72608 11.5 6.92767 11.5 7.202V12.798C11.5 13.0723 11.6179 13.2739 11.8538 13.4028C12.0898 13.5316 12.3199 13.5191 12.5442 13.3652L16.9 10.5673ZM8.05775 17.5C7.55258 17.5 7.125 17.325 6.775 16.975C6.425 16.625 6.25 16.1974 6.25 15.6923V4.30775C6.25 3.80258 6.425 3.375 6.775 3.025C7.125 2.675 7.55258 2.5 8.05775 2.5H19.4423C19.9474 2.5 20.375 2.675 20.725 3.025C21.075 3.375 21.25 3.80258 21.25 4.30775V15.6923C21.25 16.1974 21.075 16.625 20.725 16.975C20.375 17.325 19.9474 17.5 19.4423 17.5H8.05775ZM4.55775 21C4.05258 21 3.625 20.825 3.275 20.475C2.925 20.125 2.75 19.6974 2.75 19.1923V7.05775C2.75 6.84492 2.82183 6.66667 2.9655 6.523C3.109 6.3795 3.28717 6.30775 3.5 6.30775C3.71283 6.30775 3.89108 6.3795 4.03475 6.523C4.17825 6.66667 4.25 6.84492 4.25 7.05775V19.1923C4.25 19.2693 4.28208 19.3398 4.34625 19.4038C4.41025 19.4679 4.48075 19.5 4.55775 19.5H16.6923C16.9051 19.5 17.0833 19.5718 17.227 19.7153C17.3705 19.8589 17.4423 20.0372 17.4423 20.25C17.4423 20.4628 17.3705 20.641 17.227 20.7845C17.0833 20.9282 16.9051 21 16.6923 21H4.55775Z" fill="white"/>
</g>
<defs>
<clipPath id="clip0_117_8041">
<rect width="24" height="24" fill="white"/>
</clipPath>
</defs>
</svg>
