<svg width="24" height="24" viewBox="0 0 24 24" fill="none" xmlns="http://www.w3.org/2000/svg">
<g clip-path="url(#clip0_38_9303)">
<path d="M16.515 18.8845H5.2495C5.037 18.8845 4.85892 18.8127 4.71525 18.669C4.57142 18.5252 4.4995 18.3469 4.4995 18.1342C4.4995 17.9218 4.57142 17.7437 4.71525 17.6C4.85892 17.4565 5.037 17.3848 5.2495 17.3848H6.30725V9.923C6.30725 9.45633 6.36367 8.99275 6.4765 8.53225C6.58933 8.07175 6.75858 7.63283 6.98425 7.2155L8.11875 8.35C8.01492 8.60417 7.937 8.86233 7.885 9.1245C7.83317 9.38683 7.80725 9.653 7.80725 9.923V17.3848H15.0843L2.561 4.9C2.41617 4.76367 2.34375 4.59017 2.34375 4.3795C2.34375 4.16883 2.41617 3.99108 2.561 3.84625C2.706 3.70142 2.88167 3.629 3.088 3.629C3.29433 3.629 3.47 3.70142 3.615 3.84625L20.4032 20.6348C20.5417 20.7731 20.6152 20.9445 20.6235 21.149C20.6318 21.3535 20.5578 21.534 20.4013 21.6905C20.2577 21.834 20.0828 21.9058 19.8765 21.9058C19.67 21.9058 19.4943 21.8333 19.3495 21.6885L16.515 18.8845ZM13.2495 4.373C14.5572 4.64867 15.6245 5.30475 16.4515 6.34125C17.2783 7.37792 17.6917 8.57183 17.6917 9.923V13.25C17.6917 13.5 17.6138 13.6875 17.458 13.8125C17.3022 13.9375 17.1307 14 16.9435 14C16.7565 14 16.5845 13.9347 16.4275 13.804C16.2703 13.6733 16.1917 13.4836 16.1917 13.2348V9.923C16.1917 8.76533 15.7825 7.77725 14.964 6.95875C14.1453 6.14008 13.1572 5.73075 11.9995 5.73075C11.6303 5.73075 11.2573 5.78492 10.8803 5.89325C10.5033 6.00158 10.1661 6.15067 9.86875 6.3405C9.66225 6.43783 9.45517 6.466 9.2475 6.425C9.03983 6.384 8.87625 6.26942 8.75675 6.08125C8.65058 5.91808 8.61033 5.74617 8.636 5.5655C8.66167 5.38467 8.75717 5.2455 8.9225 5.148C9.19683 4.96083 9.48758 4.80317 9.79475 4.675C10.1018 4.54683 10.42 4.44617 10.7495 4.373V3.75C10.7495 3.40283 10.8709 3.10767 11.1138 2.8645C11.3566 2.6215 11.6514 2.5 11.9983 2.5C12.3453 2.5 12.6405 2.6215 12.884 2.8645C13.1277 3.10767 13.2495 3.40283 13.2495 3.75V4.373ZM11.9995 21.6923C11.547 21.6923 11.1435 21.5678 10.789 21.319C10.4345 21.07 10.2573 20.7342 10.2573 20.3118C10.2573 20.1911 10.3063 20.0898 10.4043 20.0077C10.5023 19.9256 10.6115 19.8845 10.732 19.8845H13.2648C13.3918 19.8845 13.503 19.9258 13.5985 20.0085C13.694 20.0912 13.7418 20.1927 13.7418 20.313C13.7418 20.7338 13.5645 21.0689 13.21 21.3183C12.8555 21.5676 12.452 21.6923 11.9995 21.6923Z" fill="white"/>
</g>
<defs>
<clipPath id="clip0_38_9303">
<rect width="24" height="24" fill="white"/>
</clipPath>
</defs>
</svg>
