<svg width="24" height="24" viewBox="0 0 24 24" fill="none" xmlns="http://www.w3.org/2000/svg">
<g clip-path="url(#clip0_71_34352)">
<path d="M18.3845 20H5.6155C5.17117 20 4.79083 19.8418 4.4745 19.5255C4.15817 19.2092 4 18.8288 4 18.3845V5.6155C4 5.17117 4.15817 4.79083 4.4745 4.4745C4.79083 4.15817 5.17117 4 5.6155 4H18.3845C18.8288 4 19.2092 4.15817 19.5255 4.4745C19.8418 4.79083 20 5.17117 20 5.6155V18.3845C20 18.8288 19.8418 19.2092 19.5255 19.5255C19.2092 19.8418 18.8288 20 18.3845 20ZM18.2308 16.6538H5.76925V18.4615H18.2308V16.6538ZM5.76925 15.7692H18.2308V13.9615H5.76925V15.7692ZM5.76925 12.8463H18.2308V5.76925H5.76925V12.8463Z" fill="white"/>
</g>
<defs>
<clipPath id="clip0_71_34352">
<rect width="24" height="24" fill="white"/>
</clipPath>
</defs>
</svg>
