<svg width="24" height="24" viewBox="0 0 24 24" fill="none" xmlns="http://www.w3.org/2000/svg">
<g clip-path="url(#clip0_67_12623)">
<path d="M11.1538 16.75H17.8462C18.1039 16.75 18.3189 16.6637 18.4913 16.4913C18.6638 16.3189 18.75 16.1039 18.75 15.8463V11.8078C18.75 11.5501 18.6638 11.335 18.4913 11.1625C18.3189 10.99 18.1039 10.9038 17.8462 10.9038H11.1538C10.8961 10.9038 10.6811 10.99 10.5087 11.1625C10.3363 11.335 10.25 11.5501 10.25 11.8078V15.8463C10.25 16.1039 10.3363 16.3189 10.5087 16.4913C10.6811 16.6637 10.8961 16.75 11.1538 16.75ZM4.30775 19.5C3.80258 19.5 3.375 19.325 3.025 18.975C2.675 18.625 2.5 18.1974 2.5 17.6923V6.30775C2.5 5.80258 2.675 5.375 3.025 5.025C3.375 4.675 3.80258 4.5 4.30775 4.5H19.6923C20.1974 4.5 20.625 4.675 20.975 5.025C21.325 5.375 21.5 5.80258 21.5 6.30775V17.6923C21.5 18.1974 21.325 18.625 20.975 18.975C20.625 19.325 20.1974 19.5 19.6923 19.5H4.30775ZM4.30775 18H19.6923C19.7693 18 19.8398 17.9679 19.9038 17.9038C19.9679 17.8398 20 17.7692 20 17.6923V6.30775C20 6.23075 19.9679 6.16025 19.9038 6.09625C19.8398 6.03208 19.7693 6 19.6923 6H4.30775C4.23075 6 4.16025 6.03208 4.09625 6.09625C4.03208 6.16025 4 6.23075 4 6.30775V17.6923C4 17.7692 4.03208 17.8398 4.09625 17.9038C4.16025 17.9679 4.23075 18 4.30775 18Z" fill="white"/>
</g>
<defs>
<clipPath id="clip0_67_12623">
<rect width="24" height="24" fill="white"/>
</clipPath>
</defs>
</svg>
