<svg width="24" height="24" viewBox="0 0 24 24" fill="none" xmlns="http://www.w3.org/2000/svg">
<g clip-path="url(#clip0_114_6802)">
<path d="M15.4994 5V12.2115L17.0647 13.777C17.139 13.8513 17.1949 13.935 17.2322 14.028C17.2694 14.1208 17.2879 14.2168 17.2879 14.316V14.7435C17.2879 14.9542 17.2151 15.1329 17.0694 15.2797C16.9239 15.4266 16.7435 15.5 16.5282 15.5H12.7494V20.8885C12.7494 21.101 12.6775 21.2791 12.5337 21.4228C12.3899 21.5664 12.2117 21.6383 11.9992 21.6383C11.7865 21.6383 11.6084 21.5664 11.4649 21.4228C11.3213 21.2791 11.2494 21.101 11.2494 20.8885V15.5H7.47069C7.25535 15.5 7.07494 15.4266 6.92944 15.2797C6.78377 15.1329 6.71094 14.9542 6.71094 14.7435V14.316C6.71094 14.2168 6.72952 14.1208 6.76669 14.028C6.80402 13.935 6.85985 13.8513 6.93419 13.777L8.49944 12.2115V5H8.24944C8.03694 5 7.85885 4.92808 7.71519 4.78425C7.57135 4.64042 7.49944 4.46225 7.49944 4.24975C7.49944 4.03708 7.57135 3.859 7.71519 3.7155C7.85885 3.57183 8.03694 3.5 8.24944 3.5H15.7494C15.9619 3.5 16.14 3.57192 16.2837 3.71575C16.4275 3.85958 16.4994 4.03775 16.4994 4.25025C16.4994 4.46292 16.4275 4.641 16.2837 4.7845C16.14 4.92817 15.9619 5 15.7494 5H15.4994ZM8.84944 14H15.1494L13.9994 12.85V5H9.99944V12.85L8.84944 14Z" fill="white"/>
</g>
<defs>
<clipPath id="clip0_114_6802">
<rect width="24" height="24" fill="white"/>
</clipPath>
</defs>
</svg>
