<svg width="24" height="24" viewBox="0 0 24 24" fill="none" xmlns="http://www.w3.org/2000/svg">
<g clip-path="url(#clip0_9_8260)">
<path fill-rule="evenodd" clip-rule="evenodd" d="M4 5C3.448 5 3 5.448 3 6C3 6.552 3.448 7 4 7H20C20.552 7 21 6.552 21 6C21 5.448 20.552 5 20 5H4ZM3 10C3 9.448 3.448 9 4 9H20C20.552 9 21 9.448 21 10C21 10.552 20.552 11 20 11H4C3.448 11 3 10.552 3 10ZM14 13.862C14 13.478 14.415 13.237 14.748 13.428L21 17L14.748 20.573C14.415 20.763 14 20.523 14 20.138V13.862ZM4 13C3.448 13 3 13.448 3 14C3 14.552 3.448 15 4 15H10C10.552 15 11 14.552 11 14C11 13.448 10.552 13 10 13H4ZM3 18C3 17.448 3.448 17 4 17H10C10.552 17 11 17.448 11 18C11 18.552 10.552 19 10 19H4C3.448 19 3 18.552 3 18Z" fill="white"/>
</g>
<defs>
<clipPath id="clip0_9_8260">
<rect width="24" height="24" fill="white"/>
</clipPath>
</defs>
</svg>
