<svg width="24" height="24" viewBox="0 0 24 24" fill="none" xmlns="http://www.w3.org/2000/svg">
<g clip-path="url(#clip0_114_6854)">
<path d="M19 15.4994H11.7885L10.223 17.0647C10.1487 17.139 10.065 17.1949 9.972 17.2322C9.87917 17.2694 9.78317 17.2879 9.684 17.2879H9.2565C9.04583 17.2879 8.86708 17.2151 8.72025 17.0694C8.57342 16.9239 8.5 16.7435 8.5 16.5282V12.7494H3.1115C2.899 12.7494 2.72091 12.6775 2.57725 12.5337C2.43358 12.3899 2.36175 12.2117 2.36175 11.9992C2.36175 11.7865 2.43358 11.6084 2.57725 11.4649C2.72091 11.3213 2.899 11.2494 3.1115 11.2494H8.5V7.47069C8.5 7.25535 8.57342 7.07494 8.72025 6.92944C8.86708 6.78377 9.04583 6.71094 9.2565 6.71094H9.684C9.78317 6.71094 9.87917 6.72952 9.972 6.76669C10.065 6.80402 10.1487 6.85985 10.223 6.93419L11.7885 8.49944H19V8.24944C19 8.03694 19.0719 7.85885 19.2158 7.71519C19.3596 7.57135 19.5378 7.49944 19.7503 7.49944C19.9629 7.49944 20.141 7.57135 20.2845 7.71519C20.4282 7.85885 20.5 8.03694 20.5 8.24944V15.7494C20.5 15.9619 20.4281 16.14 20.2842 16.2837C20.1404 16.4275 19.9622 16.4994 19.7497 16.4994C19.5371 16.4994 19.359 16.4275 19.2155 16.2837C19.0718 16.14 19 15.9619 19 15.7494V15.4994Z" fill="white"/>
</g>
<defs>
<clipPath id="clip0_114_6854">
<rect width="24" height="24" fill="white"/>
</clipPath>
</defs>
</svg>
