<svg width="24" height="24" viewBox="0 0 24 24" fill="none" xmlns="http://www.w3.org/2000/svg">
<g clip-path="url(#clip0_67_12557)">
<path d="M6.40639 12.5554V13.513H1.57701L1.52637 12.7764L4.36691 8.29687H5.33831L4.28864 10.0785L2.76479 12.5554H6.40639ZM5.60993 8.29687V15H4.38993V8.29687H5.60993ZM11.5857 13.1677C11.5857 13.5851 11.4874 13.9381 11.291 14.2266C11.0977 14.512 10.8322 14.7284 10.4946 14.8757C10.16 15.0199 9.77944 15.0921 9.35282 15.0921C8.92927 15.0921 8.54715 15.0199 8.20647 14.8757C7.86886 14.7284 7.60031 14.512 7.40081 14.2266C7.20438 13.9381 7.10617 13.5851 7.10617 13.1677C7.10617 12.8884 7.16141 12.6352 7.2719 12.4081C7.38546 12.1809 7.54199 11.986 7.74149 11.8234C7.94099 11.6576 8.17732 11.5318 8.45047 11.4459C8.72363 11.3569 9.02135 11.3124 9.34361 11.3124C9.7733 11.3124 10.1569 11.3906 10.4946 11.5472C10.8352 11.7006 11.1023 11.917 11.2956 12.1963C11.489 12.4725 11.5857 12.7963 11.5857 13.1677ZM10.361 13.094C10.361 12.8792 10.3181 12.6935 10.2321 12.537C10.1493 12.3774 10.0311 12.2546 9.87765 12.1687C9.72419 12.0827 9.54618 12.0398 9.34361 12.0398C9.13797 12.0398 8.95843 12.0827 8.80497 12.1687C8.65458 12.2546 8.53641 12.3774 8.45047 12.537C8.36761 12.6935 8.32617 12.8792 8.32617 13.094C8.32617 13.3119 8.36761 13.4992 8.45047 13.6557C8.53641 13.8092 8.65611 13.9273 8.80957 14.0102C8.96303 14.0931 9.14411 14.1345 9.35282 14.1345C9.56152 14.1345 9.74107 14.0931 9.89146 14.0102C10.0419 13.9273 10.1569 13.8092 10.2367 13.6557C10.3196 13.4992 10.361 13.3119 10.361 13.094ZM11.4383 10.0647C11.4383 10.4023 11.3493 10.7031 11.1713 10.9671C10.9933 11.228 10.7462 11.4321 10.4301 11.5794C10.117 11.7267 9.75795 11.8004 9.35282 11.8004C8.94768 11.8004 8.58552 11.7267 8.26632 11.5794C7.9502 11.4321 7.70159 11.228 7.52051 10.9671C7.34249 10.7031 7.25349 10.4023 7.25349 10.0647C7.25349 9.66574 7.34403 9.32812 7.52511 9.0519C7.70619 8.7726 7.95326 8.56083 8.26632 8.41657C8.58245 8.27232 8.94155 8.2002 9.34361 8.2002C9.75181 8.2002 10.114 8.27232 10.4301 8.41657C10.7462 8.56083 10.9933 8.7726 11.1713 9.0519C11.3493 9.32812 11.4383 9.66574 11.4383 10.0647ZM10.2229 10.1154C10.2229 9.92508 10.1876 9.75935 10.117 9.61816C10.0465 9.47391 9.94517 9.36189 9.8132 9.28209C9.68429 9.20229 9.52776 9.16239 9.34361 9.16239C9.1656 9.16239 9.01214 9.20075 8.88323 9.27748C8.75432 9.35421 8.65458 9.4647 8.58398 9.60896C8.51339 9.75014 8.4781 9.91895 8.4781 10.1154C8.4781 10.3087 8.51339 10.4775 8.58398 10.6218C8.65458 10.766 8.75432 10.8796 8.88323 10.9625C9.01521 11.0423 9.17174 11.0822 9.35282 11.0822C9.5339 11.0822 9.6889 11.0423 9.8178 10.9625C9.94671 10.8796 10.0465 10.766 10.117 10.6218C10.1876 10.4775 10.2229 10.3087 10.2229 10.1154ZM16.9629 11.073V12.2009C16.9629 12.7165 16.9107 13.1569 16.8064 13.5222C16.702 13.8874 16.5516 14.1867 16.3552 14.4199C16.1588 14.6501 15.924 14.8205 15.6508 14.9309C15.3777 15.0384 15.0738 15.0921 14.7393 15.0921C14.4722 15.0921 14.2236 15.0583 13.9934 14.9908C13.7633 14.9202 13.5561 14.8128 13.3719 14.6685C13.1908 14.5212 13.0343 14.334 12.9023 14.1069C12.7734 13.8797 12.6737 13.6081 12.6031 13.292C12.5356 12.9759 12.5018 12.6122 12.5018 12.2009V11.073C12.5018 10.5573 12.554 10.1184 12.6583 9.75628C12.7658 9.39411 12.9177 9.09794 13.1141 8.86775C13.3105 8.63756 13.5453 8.47028 13.8185 8.36593C14.0917 8.25851 14.3955 8.2048 14.7301 8.2048C15.0001 8.2048 15.2487 8.23856 15.4759 8.30608C15.7061 8.3736 15.9117 8.47949 16.0928 8.62374C16.2769 8.76493 16.4335 8.94908 16.5624 9.1762C16.6913 9.40025 16.7895 9.67034 16.857 9.98647C16.9276 10.2995 16.9629 10.6617 16.9629 11.073ZM15.7475 12.3666V10.9026C15.7475 10.6448 15.7321 10.4208 15.7015 10.2305C15.6738 10.0371 15.6324 9.87291 15.5771 9.73786C15.5219 9.60282 15.4528 9.49386 15.37 9.41099C15.2871 9.32506 15.192 9.26214 15.0845 9.22224C14.9771 9.18234 14.859 9.16239 14.7301 9.16239C14.5705 9.16239 14.4277 9.19461 14.3019 9.25907C14.1761 9.32045 14.0702 9.41867 13.9842 9.55371C13.8983 9.68876 13.8323 9.8683 13.7863 10.0924C13.7433 10.3133 13.7218 10.5834 13.7218 10.9026V12.3666C13.7218 12.6244 13.7356 12.85 13.7633 13.0434C13.7939 13.2367 13.8369 13.4025 13.8922 13.5406C13.9505 13.6787 14.0195 13.7923 14.0993 13.8813C14.1822 13.9672 14.2773 14.0317 14.3848 14.0746C14.4922 14.1145 14.6104 14.1345 14.7393 14.1345C14.9019 14.1345 15.0446 14.1023 15.1674 14.0378C15.2932 13.9734 15.3991 13.8721 15.4851 13.734C15.571 13.5928 15.6355 13.4102 15.6784 13.1861C15.7245 12.959 15.7475 12.6858 15.7475 12.3666ZM19.1911 10.9763V16.9152H17.9711V10.0187H19.0991L19.1911 10.9763ZM22.3908 12.4587V12.5554C22.3908 12.9176 22.3478 13.2536 22.2619 13.5636C22.179 13.8705 22.0562 14.1391 21.8936 14.3693C21.7309 14.5964 21.5283 14.7744 21.2859 14.9033C21.0465 15.0292 20.7702 15.0921 20.4572 15.0921C20.1503 15.0921 19.8832 15.0338 19.6561 14.9171C19.429 14.7974 19.2372 14.6286 19.0806 14.4107C18.9241 14.1928 18.7983 13.9396 18.7031 13.6511C18.611 13.3595 18.542 13.0419 18.496 12.6981V12.3896C18.542 12.0244 18.611 11.6929 18.7031 11.3952C18.7983 11.0944 18.9241 10.8351 19.0806 10.6172C19.2372 10.3962 19.4275 10.2259 19.6515 10.1062C19.8786 9.98647 20.1441 9.92662 20.448 9.92662C20.7641 9.92662 21.0419 9.98647 21.2812 10.1062C21.5237 10.2259 21.7278 10.3977 21.8936 10.6218C22.0593 10.8458 22.1836 11.1129 22.2665 11.4229C22.3493 11.7328 22.3908 12.0781 22.3908 12.4587ZM21.1708 12.5554V12.4587C21.1708 12.2377 21.1508 12.0336 21.1109 11.8464C21.071 11.6561 21.0096 11.4904 20.9268 11.3492C20.8439 11.2049 20.7365 11.0929 20.6045 11.0131C20.4725 10.9333 20.3129 10.8934 20.1257 10.8934C19.9385 10.8934 19.7773 10.9241 19.6423 10.9855C19.5073 11.0469 19.3968 11.1343 19.3108 11.2479C19.2249 11.3615 19.1574 11.4965 19.1083 11.653C19.0622 11.8065 19.0315 11.9768 19.0162 12.1641V12.9283C19.0438 13.1554 19.0975 13.3595 19.1773 13.5406C19.2571 13.7217 19.3737 13.8659 19.5272 13.9734C19.6837 14.0808 19.8863 14.1345 20.1349 14.1345C20.3221 14.1345 20.4817 14.0931 20.6137 14.0102C20.7457 13.9273 20.8531 13.8138 20.936 13.6695C21.0188 13.5222 21.0787 13.3534 21.1155 13.1631C21.1523 12.9728 21.1708 12.7702 21.1708 12.5554Z" fill="white"/>
</g>
<defs>
<clipPath id="clip0_67_12557">
<rect width="24" height="24" fill="white"/>
</clipPath>
</defs>
</svg>
