<svg width="24" height="24" viewBox="0 0 24 24" fill="none" xmlns="http://www.w3.org/2000/svg">
<g clip-path="url(#clip0_67_12480)">
<path d="M7.5 12.8463H9.80775V14.25C9.80775 14.4218 9.86417 14.5642 9.977 14.677C10.0898 14.7898 10.2321 14.8463 10.4037 14.8463C10.5756 14.8463 10.7179 14.7898 10.8308 14.677C10.9436 14.5642 11 14.4218 11 14.25V9.75C11 9.57817 10.9436 9.43583 10.8308 9.323C10.7179 9.21017 10.5756 9.15375 10.4037 9.15375C10.2321 9.15375 10.0898 9.21017 9.977 9.323C9.86417 9.43583 9.80775 9.57817 9.80775 9.75V11.6537H7.5V9.75C7.5 9.57817 7.44358 9.43583 7.33075 9.323C7.21792 9.21017 7.07558 9.15375 6.90375 9.15375C6.73208 9.15375 6.58983 9.21017 6.477 9.323C6.36417 9.43583 6.30775 9.57817 6.30775 9.75V14.25C6.30775 14.4218 6.36417 14.5642 6.477 14.677C6.58983 14.7898 6.73208 14.8463 6.90375 14.8463C7.07558 14.8463 7.21792 14.7898 7.33075 14.677C7.44358 14.5642 7.5 14.4218 7.5 14.25V12.8463ZM13.452 14.8463H16.6538C16.9436 14.8463 17.1891 14.7456 17.3903 14.5442C17.5916 14.3429 17.6923 14.0974 17.6923 13.8077V10.1923C17.6923 9.90258 17.5916 9.65708 17.3903 9.45575C17.1891 9.25442 16.9436 9.15375 16.6538 9.15375H13.452C13.3315 9.15375 13.226 9.199 13.1355 9.2895C13.0452 9.37983 13 9.48525 13 9.60575V14.3942C13 14.5147 13.0452 14.6202 13.1355 14.7105C13.226 14.801 13.3315 14.8463 13.452 14.8463ZM14.1923 13.6538V10.3462H16.3462C16.3846 10.3462 16.4198 10.3623 16.452 10.3943C16.484 10.4263 16.5 10.4615 16.5 10.5V13.5C16.5 13.5385 16.484 13.5738 16.452 13.6058C16.4198 13.6378 16.3846 13.6538 16.3462 13.6538H14.1923ZM4.30775 19.5C3.80258 19.5 3.375 19.325 3.025 18.975C2.675 18.625 2.5 18.1974 2.5 17.6923V6.30775C2.5 5.80258 2.675 5.375 3.025 5.025C3.375 4.675 3.80258 4.5 4.30775 4.5H19.6923C20.1974 4.5 20.625 4.675 20.975 5.025C21.325 5.375 21.5 5.80258 21.5 6.30775V17.6923C21.5 18.1974 21.325 18.625 20.975 18.975C20.625 19.325 20.1974 19.5 19.6923 19.5H4.30775ZM4.30775 18H19.6923C19.7693 18 19.8398 17.9679 19.9038 17.9038C19.9679 17.8398 20 17.7692 20 17.6923V6.30775C20 6.23075 19.9679 6.16025 19.9038 6.09625C19.8398 6.03208 19.7693 6 19.6923 6H4.30775C4.23075 6 4.16025 6.03208 4.09625 6.09625C4.03208 6.16025 4 6.23075 4 6.30775V17.6923C4 17.7692 4.03208 17.8398 4.09625 17.9038C4.16025 17.9679 4.23075 18 4.30775 18Z" fill="white"/>
</g>
<defs>
<clipPath id="clip0_67_12480">
<rect width="24" height="24" fill="white"/>
</clipPath>
</defs>
</svg>
