<svg width="24" height="24" viewBox="0 0 24 24" fill="none" xmlns="http://www.w3.org/2000/svg">
<g clip-path="url(#clip0_29_8833)">
<g clip-path="url(#clip1_29_8833)">
<path d="M8 13.5V20C8 20.2125 7.92808 20.3906 7.78425 20.5343C7.64042 20.6781 7.46225 20.75 7.24975 20.75C7.03708 20.75 6.859 20.6781 6.7155 20.5343C6.57183 20.3906 6.5 20.2125 6.5 20V5.404C6.5 5.14783 6.58667 4.93317 6.76 4.76C6.93317 4.58667 7.14783 4.5 7.404 4.5H13.848C14.0615 4.5 14.2521 4.567 14.4197 4.701C14.5872 4.835 14.6928 5.009 14.7365 5.223L14.996 6.5H19.596C19.8522 6.5 20.0668 6.58625 20.24 6.75875C20.4133 6.93125 20.5 7.145 20.5 7.4V14.6003C20.5 14.8553 20.4133 15.0689 20.24 15.2413C20.0668 15.4137 19.8522 15.5 19.596 15.5H15.152C14.9385 15.5 14.7479 15.433 14.5803 15.299C14.4128 15.165 14.3072 14.991 14.2635 14.777L14.004 13.5H8ZM15.65 14H19V8H14.498C14.2847 8 14.0942 7.933 13.9265 7.799C13.7588 7.665 13.6532 7.491 13.6095 7.277L13.35 6H8V12H14.502C14.7153 12 14.9058 12.067 15.0735 12.201C15.2412 12.335 15.3468 12.509 15.3905 12.723L15.65 14Z" fill="white"/>
</g>
</g>
<defs>
<clipPath id="clip0_29_8833">
<rect width="24" height="24" fill="white"/>
</clipPath>
<clipPath id="clip1_29_8833">
<rect width="24" height="24" fill="white"/>
</clipPath>
</defs>
</svg>
