<svg width="24" height="24" viewBox="0 0 24 24" fill="none" xmlns="http://www.w3.org/2000/svg">
<g clip-path="url(#clip0_9_8415)">
<path fill-rule="evenodd" clip-rule="evenodd" d="M6.5 2C5.672 2 5 2.672 5 3.5V4H3C2.448 4 2 4.448 2 5V8C2 10.493 3.825 12.56 6.212 12.938C7.294 14.526 9.012 15.645 11 15.929V18.5H9.5C8.672 18.5 8 19.172 8 20V22H16V20C16 19.172 15.328 18.5 14.5 18.5H13V15.93C14.988 15.645 16.706 14.526 17.788 12.938C20.175 12.56 22 10.493 22 8V5C22 4.448 21.552 4 21 4H19V3.5C19 2.672 18.328 2 17.5 2H6.5ZM19 5.25V9C19 9.844 18.85 10.654 18.576 11.403C19.86 10.808 20.75 9.508 20.75 8V5.25H19ZM5.424 11.403C5.15 10.654 5 9.845 5 9V5.25H3.25V8C3.25 9.508 4.14 10.808 5.424 11.403Z" fill="white"/>
</g>
<defs>
<clipPath id="clip0_9_8415">
<rect width="24" height="24" fill="white"/>
</clipPath>
</defs>
</svg>
