<svg width="24" height="24" viewBox="0 0 24 24" fill="none" xmlns="http://www.w3.org/2000/svg">
<g clip-path="url(#clip0_9_8373)">
<path fill-rule="evenodd" clip-rule="evenodd" d="M6.5 3.27734H17.5V8.77734C17.5 11.8153 15.038 14.2773 12 14.2773C8.962 14.2773 6.5 11.8153 6.5 8.77734V3.27734ZM5 3.27734C5 2.44934 5.672 1.77734 6.5 1.77734H17.5C18.328 1.77734 19 2.44934 19 3.27734V3.77734H21C21.552 3.77734 22 4.22534 22 4.77734V7.77734C22 10.2703 20.175 12.3373 17.788 12.7153C16.706 14.3033 14.988 15.4223 13 15.7063V17.2773H14.5C15.328 17.2773 16 17.9493 16 18.7773V21.7773H8V18.7773C8 17.9493 8.672 17.2773 9.5 17.2773H11V15.7073C9.013 15.4223 7.294 14.3033 6.212 12.7153C3.825 12.3373 2 10.2703 2 7.77734V4.77734C2 4.22534 2.448 3.77734 3 3.77734H5V3.27734ZM5 5.02734H3.25V7.77734C3.25 9.28534 4.14 10.5853 5.424 11.1803C5.15 10.4313 5 9.62234 5 8.77734V5.02734ZM18.576 11.1803C19.86 10.5853 20.75 9.28534 20.75 7.77734V5.02734H19V8.77734C19 9.62134 18.85 10.4313 18.576 11.1803ZM9.5 20.2773V18.7773H14.5V20.2773H9.5Z" fill="white"/>
</g>
<defs>
<clipPath id="clip0_9_8373">
<rect width="24" height="24" fill="white"/>
</clipPath>
</defs>
</svg>
