<svg width="24" height="24" viewBox="0 0 24 24" fill="none" xmlns="http://www.w3.org/2000/svg">
<g clip-path="url(#clip0_128_14819)">
<path d="M14.8645 19.5C14.6522 19.5 14.4741 19.4281 14.3303 19.2843C14.1866 19.1404 14.1148 18.9622 14.1148 18.7498C14.1148 18.5371 14.1866 18.359 14.3303 18.2155C14.4741 18.0718 14.6522 18 14.8645 18H16.9648L14.1435 15.1788C13.9948 15.0301 13.9214 14.8535 13.9233 14.649C13.9253 14.4445 14.0038 14.2647 14.1588 14.1095C14.3139 13.9545 14.4922 13.877 14.6935 13.877C14.8948 13.877 15.073 13.9545 15.228 14.1095L17.9993 16.8963V14.8942C17.9993 14.6818 18.0712 14.5036 18.215 14.3598C18.3588 14.2161 18.537 14.1442 18.7495 14.1442C18.9622 14.1442 19.1403 14.2161 19.2838 14.3598C19.4274 14.5036 19.4993 14.6818 19.4993 14.8942V18.596C19.4993 18.8522 19.4126 19.0668 19.2393 19.24C19.0661 19.4133 18.8514 19.5 18.5953 19.5H14.8645ZM4.72226 19.277C4.57743 19.132 4.50501 18.9563 4.50501 18.75C4.50501 18.5435 4.57743 18.3678 4.72226 18.223L16.9455 6H14.8645C14.6522 6 14.4741 5.92808 14.3303 5.78425C14.1866 5.64042 14.1148 5.46225 14.1148 5.24975C14.1148 5.03708 14.1866 4.859 14.3303 4.7155C14.4741 4.57183 14.6522 4.5 14.8645 4.5H18.5953C18.8514 4.5 19.0661 4.58667 19.2393 4.76C19.4126 4.93317 19.4993 5.14783 19.4993 5.404V9.10575C19.4993 9.31825 19.4273 9.49642 19.2835 9.64025C19.1397 9.78392 18.9615 9.85575 18.749 9.85575C18.5363 9.85575 18.3583 9.78392 18.2148 9.64025C18.0711 9.49642 17.9993 9.31825 17.9993 9.10575V7.05375L5.77626 19.277C5.63776 19.4153 5.46368 19.4862 5.25401 19.4895C5.04451 19.4927 4.86726 19.4218 4.72226 19.277ZM4.70701 5.76725C4.56851 5.62892 4.50085 5.45492 4.50401 5.24525C4.50735 5.03558 4.5776 4.8615 4.71476 4.723C4.85193 4.58467 5.02335 4.5155 5.22901 4.5155C5.43485 4.5155 5.6121 4.58467 5.76076 4.723L9.80701 8.7635C9.94535 8.902 10.0171 9.07183 10.0223 9.273C10.0274 9.47433 9.95568 9.64992 9.80701 9.79975C9.67068 9.93708 9.49718 10.0057 9.28651 10.0057C9.07585 10.0057 8.90126 9.9365 8.76276 9.798L4.70701 5.76725Z" fill="white"/>
</g>
<defs>
<clipPath id="clip0_128_14819">
<rect width="24" height="24" fill="white"/>
</clipPath>
</defs>
</svg>
