<svg width="24" height="24" viewBox="0 0 24 24" fill="none" xmlns="http://www.w3.org/2000/svg">
<g clip-path="url(#clip0_67_14206)">
<path d="M12.1 21.5008C10.7705 21.5008 9.52375 21.2486 8.35975 20.7441C7.19558 20.2396 6.18017 19.554 5.3135 18.6873C4.44683 17.8207 3.76125 16.8053 3.25675 15.6411C2.75225 14.4771 2.5 13.2303 2.5 11.9008C2.5 9.71118 3.16767 7.76084 4.503 6.04984C5.83817 4.33901 7.56475 3.21693 9.68275 2.68359C9.49808 4.28876 9.66342 5.84518 10.1788 7.35284C10.6943 8.86051 11.5244 10.1868 12.6693 11.3316C13.8141 12.4764 15.1403 13.3066 16.648 13.8221C18.1557 14.3374 19.7121 14.5028 21.3173 14.3181C20.7943 16.4361 19.6747 18.1627 17.9585 19.4978C16.2425 20.8332 14.2897 21.5008 12.1 21.5008Z" fill="white"/>
</g>
<defs>
<clipPath id="clip0_67_14206">
<rect width="24" height="24" fill="white"/>
</clipPath>
</defs>
</svg>
