<svg width="24" height="24" viewBox="0 0 24 24" fill="none" xmlns="http://www.w3.org/2000/svg">
<g clip-path="url(#clip0_9_8331)">
<path fill-rule="evenodd" clip-rule="evenodd" d="M14 1.77734L12.5 2.66334L7.305 5.73334C4.637 7.31034 3 10.1783 3 13.2773C3 17.9713 6.806 21.7773 11.5 21.7773C16.194 21.7773 20 17.9713 20 13.2773V0.777344L18.5 1.77734L15.5 3.77734L14 4.77734V1.77734ZM8.068 7.02534L12.5 4.40534V7.58034L14.832 6.02534L18.5 3.58034V13.2773C18.5 17.1433 15.366 20.2773 11.5 20.2773C7.634 20.2773 4.5 17.1433 4.5 13.2773C4.5 10.7093 5.857 8.33134 8.068 7.02534ZM9 14.7773C9 13.5513 9.693 12.4313 10.789 11.8833L15 9.77734V14.7773C15 16.4343 13.657 17.7773 12 17.7773C10.343 17.7773 9 16.4343 9 14.7773Z" fill="white"/>
</g>
<defs>
<clipPath id="clip0_9_8331">
<rect width="24" height="24" fill="white"/>
</clipPath>
</defs>
</svg>
