<svg width="24" height="24" viewBox="0 0 24 24" fill="none" xmlns="http://www.w3.org/2000/svg">
<g clip-path="url(#clip0_67_12653)">
<path d="M5.30775 19.5C4.80258 19.5 4.375 19.325 4.025 18.975C3.675 18.625 3.5 18.1974 3.5 17.6923V6.30775C3.5 5.80258 3.675 5.375 4.025 5.025C4.375 4.675 4.80258 4.5 5.30775 4.5H18.6923C19.1974 4.5 19.625 4.675 19.975 5.025C20.325 5.375 20.5 5.80258 20.5 6.30775V17.6923C20.5 18.1974 20.325 18.625 19.975 18.975C19.625 19.325 19.1974 19.5 18.6923 19.5H5.30775ZM5.30775 18H18.6923C18.7692 18 18.8398 17.9679 18.9038 17.9038C18.9679 17.8398 19 17.7692 19 17.6923V6.30775C19 6.23075 18.9679 6.16025 18.9038 6.09625C18.8398 6.03208 18.7692 6 18.6923 6H5.30775C5.23075 6 5.16025 6.03208 5.09625 6.09625C5.03208 6.16025 5 6.23075 5 6.30775V17.6923C5 17.7692 5.03208 17.8398 5.09625 17.9038C5.16025 17.9679 5.23075 18 5.30775 18Z" fill="white"/>
</g>
<defs>
<clipPath id="clip0_67_12653">
<rect width="24" height="24" fill="white"/>
</clipPath>
</defs>
</svg>
