<svg width="24" height="24" viewBox="0 0 24 24" fill="none" xmlns="http://www.w3.org/2000/svg">
<g clip-path="url(#clip0_46_9305)">
<path d="M16.8077 9.24916H20.8078C21.0203 9.24916 21.1983 9.32107 21.342 9.46491C21.4858 9.60874 21.5578 9.78691 21.5578 9.99941C21.5578 10.2121 21.4858 10.3902 21.342 10.5337C21.1983 10.6773 21.0203 10.7492 20.8078 10.7492H16.8077C16.5953 10.7492 16.4171 10.6772 16.2732 10.5334C16.1296 10.3896 16.0577 10.2114 16.0577 9.99891C16.0577 9.78624 16.1296 9.60816 16.2732 9.46466C16.4171 9.32099 16.5953 9.24916 16.8077 9.24916ZM9 11.6914C8.0375 11.6914 7.21358 11.3487 6.52825 10.6634C5.84275 9.97791 5.5 9.15391 5.5 8.19141C5.5 7.22891 5.84275 6.40499 6.52825 5.71966C7.21358 5.03416 8.0375 4.69141 9 4.69141C9.9625 4.69141 10.7864 5.03416 11.4718 5.71966C12.1573 6.40499 12.5 7.22891 12.5 8.19141C12.5 9.15391 12.1573 9.97791 11.4718 10.6634C10.7864 11.3487 9.9625 11.6914 9 11.6914ZM1.5 17.7877V17.0837C1.5 16.594 1.633 16.1405 1.899 15.7232C2.165 15.3058 2.5205 14.985 2.9655 14.7607C3.95383 14.2762 4.95092 13.9127 5.95675 13.6704C6.96258 13.4281 7.977 13.3069 9 13.3069C10.023 13.3069 11.0374 13.4281 12.0433 13.6704C13.0491 13.9127 14.0462 14.2762 15.0345 14.7607C15.4795 14.985 15.835 15.3058 16.101 15.7232C16.367 16.1405 16.5 16.594 16.5 17.0837V17.7877C16.5 18.2093 16.3523 18.568 16.0568 18.8637C15.7613 19.1592 15.4026 19.3069 14.9808 19.3069H3.01925C2.59742 19.3069 2.23875 19.1592 1.94325 18.8637C1.64775 18.568 1.5 18.2093 1.5 17.7877ZM3 17.8069H15V17.0837C15 16.8812 14.9413 16.6937 14.824 16.5212C14.7067 16.3488 14.5474 16.2082 14.3462 16.0992C13.4846 15.6748 12.6061 15.3533 11.7107 15.1347C10.8153 14.9162 9.91167 14.8069 9 14.8069C8.08833 14.8069 7.18475 14.9162 6.28925 15.1347C5.39392 15.3533 4.51542 15.6748 3.65375 16.0992C3.45258 16.2082 3.29333 16.3488 3.176 16.5212C3.05867 16.6937 3 16.8812 3 17.0837V17.8069ZM9 10.1914C9.55 10.1914 10.0208 9.99557 10.4125 9.60391C10.8042 9.21224 11 8.74141 11 8.19141C11 7.64141 10.8042 7.17057 10.4125 6.77891C10.0208 6.38724 9.55 6.19141 9 6.19141C8.45 6.19141 7.97917 6.38724 7.5875 6.77891C7.19583 7.17057 7 7.64141 7 8.19141C7 8.74141 7.19583 9.21224 7.5875 9.60391C7.97917 9.99557 8.45 10.1914 9 10.1914Z" fill="white"/>
</g>
<defs>
<clipPath id="clip0_46_9305">
<rect width="24" height="24" fill="white"/>
</clipPath>
</defs>
</svg>
