<svg width="24" height="24" viewBox="0 0 24 24" fill="none" xmlns="http://www.w3.org/2000/svg">
<g clip-path="url(#clip0_9_8272)">
<path fill-rule="evenodd" clip-rule="evenodd" d="M12 22C17.523 22 22 17.523 22 12C22 6.477 17.523 2 12 2C6.477 2 2 6.477 2 12C2 17.523 6.477 22 12 22ZM13 7C13 6.448 12.552 6 12 6C11.448 6 11 6.448 11 7V12.5L11.4 12.8L15.4 15.8C15.842 16.131 16.469 16.042 16.8 15.6C17.131 15.158 17.042 14.531 16.6 14.2L13 11.5V7Z" fill="white"/>
</g>
<defs>
<clipPath id="clip0_9_8272">
<rect width="24" height="24" fill="white"/>
</clipPath>
</defs>
</svg>
