<svg width="24" height="24" viewBox="0 0 24 24" fill="none" xmlns="http://www.w3.org/2000/svg">
<g clip-path="url(#clip0_46_11895)">
<path d="M7.0385 16.5379C5.78283 16.5379 4.7125 16.0954 3.8275 15.2104C2.9425 14.3256 2.5 13.2554 2.5 11.9999C2.5 10.7444 2.9425 9.6741 3.8275 8.78894C4.7125 7.9036 5.78283 7.46094 7.0385 7.46094H10.0578C10.2702 7.46094 10.4483 7.53285 10.592 7.67669C10.7358 7.82052 10.8077 7.99877 10.8077 8.21144C10.8077 8.42394 10.7358 8.60202 10.592 8.74569C10.4483 8.88919 10.2702 8.96094 10.0578 8.96094H7.03725C6.19825 8.96094 5.48233 9.25744 4.8895 9.85044C4.2965 10.4434 4 11.1598 4 11.9994C4 12.8391 4.2965 13.5554 4.8895 14.1484C5.48233 14.7414 6.19825 15.0379 7.03725 15.0379H10.0578C10.2702 15.0379 10.4483 15.1099 10.592 15.2537C10.7358 15.3975 10.8077 15.5757 10.8077 15.7882C10.8077 16.0009 10.7358 16.1789 10.592 16.3224C10.4483 16.4661 10.2702 16.5379 10.0578 16.5379H7.0385ZM9 12.7494C8.7875 12.7494 8.60942 12.6775 8.46575 12.5337C8.32192 12.3899 8.25 12.2117 8.25 11.9992C8.25 11.7865 8.32192 11.6084 8.46575 11.4649C8.60942 11.3213 8.7875 11.2494 9 11.2494H15C15.2125 11.2494 15.3906 11.3214 15.5343 11.4652C15.6781 11.609 15.75 11.7872 15.75 11.9997C15.75 12.2124 15.6781 12.3904 15.5343 12.5339C15.3906 12.6776 15.2125 12.7494 15 12.7494H9ZM13.9423 16.5379C13.7298 16.5379 13.5517 16.466 13.408 16.3222C13.2642 16.1784 13.1923 16.0001 13.1923 15.7874C13.1923 15.5749 13.2642 15.3969 13.408 15.2532C13.5517 15.1097 13.7298 15.0379 13.9423 15.0379H16.9628C17.8018 15.0379 18.5177 14.7414 19.1105 14.1484C19.7035 13.5554 20 12.8391 20 11.9994C20 11.1598 19.7035 10.4434 19.1105 9.85044C18.5177 9.25744 17.8018 8.96094 16.9628 8.96094H13.9423C13.7298 8.96094 13.5517 8.88902 13.408 8.74519C13.2642 8.60135 13.1923 8.42319 13.1923 8.21069C13.1923 7.99802 13.2642 7.81994 13.408 7.67644C13.5517 7.53277 13.7298 7.46094 13.9423 7.46094H16.9615C18.2172 7.46094 19.2875 7.90344 20.1725 8.78844C21.0575 9.67327 21.5 10.7434 21.5 11.9989C21.5 13.2544 21.0575 14.3248 20.1725 15.2099C19.2875 16.0953 18.2172 16.5379 16.9615 16.5379H13.9423Z" fill="white"/>
</g>
<defs>
<clipPath id="clip0_46_11895">
<rect width="24" height="24" fill="white"/>
</clipPath>
</defs>
</svg>
