<svg width="24" height="24" viewBox="0 0 24 24" fill="none" xmlns="http://www.w3.org/2000/svg">
<g clip-path="url(#clip0_29_8846)">
<path d="M20.6923 8.49962C21.1679 8.49962 21.5881 8.68204 21.9527 9.04687C22.3176 9.41154 22.5 9.8317 22.5 10.3074V11.9226C22.5 12.0276 22.4865 12.1401 22.4595 12.2601C22.4327 12.38 22.4026 12.4919 22.3693 12.5959L19.5033 19.3584C19.3601 19.6782 19.1199 19.9484 18.7828 20.1689C18.4456 20.3894 18.0938 20.4996 17.7273 20.4996H7.2115V8.49962L13.0288 2.73237C13.2276 2.5337 13.4578 2.41512 13.7193 2.37662C13.9808 2.33812 14.2313 2.38295 14.471 2.51112C14.7108 2.63945 14.8865 2.82154 14.998 3.05737C15.1095 3.2932 15.1333 3.53745 15.0693 3.79012L13.9923 8.49962H20.6923ZM8.7115 9.13812V18.9996H17.7308C17.8012 18.9996 17.8733 18.9804 17.947 18.9419C18.0208 18.9034 18.077 18.8393 18.1155 18.7496L21 11.9996V10.3074C21 10.2175 20.9712 10.1438 20.9135 10.0861C20.8558 10.0285 20.7821 9.99962 20.6923 9.99962H12.0963L13.35 4.51887L8.7115 9.13812ZM4.30775 20.4996C3.81058 20.4996 3.385 20.3226 3.031 19.9686C2.677 19.6146 2.5 19.189 2.5 18.6919V10.3074C2.5 9.8102 2.677 9.38462 3.031 9.03062C3.385 8.67662 3.81058 8.49962 4.30775 8.49962H7.2115V9.99962H4.30775C4.21792 9.99962 4.14417 10.0285 4.0865 10.0861C4.02883 10.1438 4 10.2175 4 10.3074V18.6919C4 18.7817 4.02883 18.8555 4.0865 18.9131C4.14417 18.9708 4.21792 18.9996 4.30775 18.9996H7.2115V20.4996H4.30775Z" fill="white"/>
</g>
<defs>
<clipPath id="clip0_29_8846">
<rect width="24" height="24" fill="white"/>
</clipPath>
</defs>
</svg>
