<svg width="24" height="24" viewBox="0 0 24 24" fill="none" xmlns="http://www.w3.org/2000/svg">
<g clip-path="url(#clip0_9_8349)">
<path fill-rule="evenodd" clip-rule="evenodd" d="M18.49 2.12811C18.6448 2.2151 18.7736 2.34173 18.8632 2.49497C18.9528 2.64822 19 2.82257 19 3.00011V16.0001C18.9997 16.6369 18.7967 17.257 18.4206 17.7708C18.0444 18.2846 17.5145 18.6653 16.9076 18.858C16.3007 19.0506 15.6482 19.0451 15.0446 18.8423C14.441 18.6395 13.9176 18.25 13.5501 17.7299C13.1826 17.2099 12.9901 16.5865 13.0004 15.9498C13.0107 15.3131 13.2234 14.6963 13.6076 14.1885C13.9918 13.6807 14.5276 13.3083 15.1375 13.1252C15.7473 12.9421 16.3997 12.9579 17 13.1701V7.78411L10 12.0621V19.0001C9.99967 19.6369 9.79673 20.257 9.42057 20.7708C9.0444 21.2846 8.51451 21.6653 7.90759 21.858C7.30067 22.0506 6.64819 22.0451 6.04459 21.8423C5.44098 21.6395 4.91755 21.25 4.55006 20.7299C4.18256 20.2099 3.99005 19.5865 4.0004 18.9498C4.01074 18.3131 4.2234 17.6963 4.60759 17.1885C4.99179 16.6807 5.52759 16.3083 6.13747 16.1252C6.74735 15.9421 7.39966 15.9579 8 16.1701V8.50011C8.0001 8.3288 8.04419 8.1604 8.12807 8.01103C8.21195 7.86167 8.33278 7.73636 8.479 7.64711L17.479 2.14711C17.6304 2.05442 17.8038 2.00371 17.9813 2.0002C18.1588 1.99668 18.334 2.04049 18.489 2.12711L18.49 2.12811Z" fill="white"/>
</g>
<defs>
<clipPath id="clip0_9_8349">
<rect width="24" height="24" fill="white"/>
</clipPath>
</defs>
</svg>
