<svg width="24" height="24" viewBox="0 0 24 24" fill="none" xmlns="http://www.w3.org/2000/svg">
<path d="M6.21321 12C6.21321 13.0673 5.35165 13.9289 4.28434 13.9289C3.21703 13.9289 2.35547 13.0673 2.35547 12C2.35547 10.9327 3.21703 10.0711 4.28434 10.0711C5.35165 10.0711 6.21321 10.9327 6.21321 12ZM11.9998 10.0711C10.9325 10.0711 10.071 10.9327 10.071 12C10.071 13.0673 10.9325 13.9289 11.9998 13.9289C13.0671 13.9289 13.9287 13.0673 13.9287 12C13.9287 10.9327 13.0671 10.0711 11.9998 10.0711ZM19.7153 10.0711C18.648 10.0711 17.7864 10.9327 17.7864 12C17.7864 13.0673 18.648 13.9289 19.7153 13.9289C20.7826 13.9289 21.6442 13.0673 21.6442 12C21.6442 10.9327 20.7826 10.0711 19.7153 10.0711Z" fill="white"/>
</svg>
