<svg width="24" height="24" viewBox="0 0 24 24" fill="none" xmlns="http://www.w3.org/2000/svg">
<g clip-path="url(#clip0_67_12554)">
<path d="M3.08245 11.1098H3.76842C4.01088 11.1098 4.21038 11.0684 4.36691 10.9855C4.52651 10.8996 4.64467 10.7829 4.7214 10.6356C4.8012 10.4852 4.8411 10.3118 4.8411 10.1154C4.8411 9.92201 4.8058 9.75474 4.73521 9.61356C4.66462 9.46931 4.5572 9.35882 4.41295 9.28209C4.27176 9.20229 4.09068 9.16239 3.8697 9.16239C3.69169 9.16239 3.52748 9.19768 3.37709 9.26828C3.22977 9.33887 3.11161 9.44015 3.0226 9.57213C2.93666 9.70103 2.89369 9.85603 2.89369 10.0371H1.67369C1.67369 9.67494 1.76883 9.35728 1.95912 9.08412C2.15248 8.8079 2.41336 8.59152 2.74177 8.43499C3.07017 8.27846 3.43694 8.2002 3.84208 8.2002C4.28404 8.2002 4.67076 8.27386 5.00223 8.42118C5.33677 8.56543 5.59612 8.77874 5.78027 9.0611C5.96749 9.34347 6.06111 9.69336 6.06111 10.1108C6.06111 10.3103 6.01353 10.5098 5.91839 10.7093C5.82631 10.9057 5.68973 11.0837 5.50865 11.2433C5.33064 11.3998 5.11119 11.5272 4.85031 11.6254C4.59249 11.7206 4.29632 11.7681 3.96177 11.7681H3.08245V11.1098ZM3.08245 12.049V11.3998H3.96177C4.33929 11.3998 4.66616 11.4443 4.94238 11.5333C5.22168 11.6193 5.45187 11.742 5.63295 11.9016C5.81403 12.0582 5.94754 12.2408 6.03348 12.4495C6.12249 12.6582 6.16699 12.8823 6.16699 13.1217C6.16699 13.4347 6.10868 13.714 5.99205 13.9595C5.87542 14.202 5.71122 14.4076 5.49944 14.5765C5.29074 14.7453 5.0452 14.8742 4.76283 14.9632C4.48047 15.0491 4.17508 15.0921 3.84668 15.0921C3.56124 15.0921 3.28348 15.0537 3.01339 14.977C2.74637 14.8972 2.50544 14.779 2.2906 14.6225C2.07575 14.4629 1.90541 14.2634 1.77958 14.024C1.65374 13.7815 1.59082 13.5007 1.59082 13.1815H2.81083C2.81083 13.3657 2.85533 13.5299 2.94434 13.6741C3.03641 13.8184 3.16225 13.9319 3.32185 14.0148C3.48451 14.0946 3.66713 14.1345 3.8697 14.1345C4.09375 14.1345 4.28557 14.0946 4.44517 14.0148C4.60784 13.9319 4.73214 13.8153 4.81808 13.6649C4.90402 13.5114 4.94699 13.3288 4.94699 13.117C4.94699 12.8654 4.89941 12.6613 4.80427 12.5047C4.70912 12.3482 4.57254 12.2331 4.39453 12.1595C4.21959 12.0858 4.01088 12.049 3.76842 12.049H3.08245ZM10.5222 8.24163H10.6879V9.22224H10.6097C10.2383 9.22224 9.91141 9.27902 9.62905 9.39258C9.34975 9.50614 9.11649 9.66574 8.92927 9.87137C8.74512 10.0739 8.60547 10.3149 8.51032 10.5942C8.41518 10.8704 8.36761 11.1727 8.36761 11.5011V12.5876C8.36761 12.8424 8.39369 13.0664 8.44587 13.2598C8.50112 13.4501 8.57631 13.6112 8.67146 13.7432C8.76967 13.8721 8.88323 13.9687 9.01214 14.0332C9.14411 14.0977 9.28837 14.1299 9.44489 14.1299C9.60142 14.1299 9.74261 14.0977 9.86844 14.0332C9.99428 13.9687 10.1017 13.8782 10.1907 13.7616C10.2828 13.6419 10.3518 13.5022 10.3979 13.3426C10.447 13.183 10.4715 13.0081 10.4715 12.8178C10.4715 12.6306 10.4485 12.4572 10.4025 12.2976C10.3564 12.138 10.2889 11.9983 10.1999 11.8786C10.1109 11.7559 10.0004 11.6622 9.86844 11.5978C9.73954 11.5303 9.59222 11.4965 9.42648 11.4965C9.21164 11.4965 9.01981 11.5472 8.851 11.6484C8.6822 11.7467 8.54869 11.8756 8.45047 12.0352C8.35226 12.1948 8.29855 12.3636 8.28934 12.5416L7.8796 12.339C7.89495 12.0781 7.9502 11.8387 8.04534 11.6208C8.14355 11.4029 8.274 11.2126 8.43666 11.0499C8.6024 10.8873 8.79729 10.7614 9.02135 10.6724C9.24847 10.5834 9.50014 10.5389 9.77637 10.5389C10.0956 10.5389 10.3749 10.6003 10.6143 10.7231C10.8537 10.8428 11.0516 11.007 11.2081 11.2157C11.3677 11.4244 11.4874 11.6653 11.5672 11.9385C11.647 12.2086 11.6869 12.494 11.6869 12.7948C11.6869 13.117 11.6348 13.4178 11.5304 13.6971C11.4291 13.9764 11.2818 14.2204 11.0884 14.4291C10.8951 14.6378 10.6618 14.8005 10.3887 14.9171C10.1155 15.0338 9.80859 15.0921 9.46791 15.0921C9.10882 15.0921 8.78655 15.0246 8.50112 14.8895C8.21875 14.7545 7.97628 14.5672 7.77372 14.3278C7.57115 14.0884 7.41616 13.8092 7.30873 13.49C7.20131 13.1708 7.1476 12.8255 7.1476 12.4541V11.9661C7.1476 11.4413 7.21973 10.9533 7.36398 10.5021C7.50823 10.0509 7.72154 9.65653 8.00391 9.31892C8.28934 8.97824 8.6423 8.71429 9.06278 8.52706C9.48326 8.33677 9.96973 8.24163 10.5222 8.24163ZM16.9629 11.073V12.2009C16.9629 12.7165 16.9107 13.1569 16.8064 13.5222C16.702 13.8874 16.5516 14.1867 16.3552 14.4199C16.1588 14.6501 15.924 14.8205 15.6508 14.9309C15.3777 15.0384 15.0738 15.0921 14.7393 15.0921C14.4722 15.0921 14.2236 15.0583 13.9934 14.9908C13.7633 14.9202 13.5561 14.8128 13.3719 14.6685C13.1908 14.5212 13.0343 14.334 12.9023 14.1069C12.7734 13.8797 12.6737 13.6081 12.6031 13.292C12.5356 12.9759 12.5018 12.6122 12.5018 12.2009V11.073C12.5018 10.5573 12.554 10.1184 12.6583 9.75628C12.7658 9.39411 12.9177 9.09794 13.1141 8.86775C13.3105 8.63756 13.5453 8.47028 13.8185 8.36593C14.0917 8.25851 14.3955 8.2048 14.7301 8.2048C15.0001 8.2048 15.2487 8.23856 15.4759 8.30608C15.7061 8.3736 15.9117 8.47949 16.0928 8.62374C16.2769 8.76493 16.4335 8.94908 16.5624 9.1762C16.6913 9.40025 16.7895 9.67034 16.857 9.98647C16.9276 10.2995 16.9629 10.6617 16.9629 11.073ZM15.7475 12.3666V10.9026C15.7475 10.6448 15.7321 10.4208 15.7015 10.2305C15.6738 10.0371 15.6324 9.87291 15.5771 9.73786C15.5219 9.60282 15.4528 9.49386 15.37 9.41099C15.2871 9.32506 15.192 9.26214 15.0845 9.22224C14.9771 9.18234 14.859 9.16239 14.7301 9.16239C14.5705 9.16239 14.4277 9.19461 14.3019 9.25907C14.1761 9.32045 14.0702 9.41867 13.9842 9.55371C13.8983 9.68876 13.8323 9.8683 13.7863 10.0924C13.7433 10.3133 13.7218 10.5834 13.7218 10.9026V12.3666C13.7218 12.6244 13.7356 12.85 13.7633 13.0434C13.7939 13.2367 13.8369 13.4025 13.8922 13.5406C13.9505 13.6787 14.0195 13.7923 14.0993 13.8813C14.1822 13.9672 14.2773 14.0317 14.3848 14.0746C14.4922 14.1145 14.6104 14.1345 14.7393 14.1345C14.9019 14.1345 15.0446 14.1023 15.1674 14.0378C15.2932 13.9734 15.3991 13.8721 15.4851 13.734C15.571 13.5928 15.6355 13.4102 15.6784 13.1861C15.7245 12.959 15.7475 12.6858 15.7475 12.3666ZM19.1911 10.9763V16.9152H17.9711V10.0187H19.0991L19.1911 10.9763ZM22.3908 12.4587V12.5554C22.3908 12.9176 22.3478 13.2536 22.2619 13.5636C22.179 13.8705 22.0562 14.1391 21.8936 14.3693C21.7309 14.5964 21.5283 14.7744 21.2859 14.9033C21.0465 15.0292 20.7702 15.0921 20.4572 15.0921C20.1503 15.0921 19.8832 15.0338 19.6561 14.9171C19.429 14.7974 19.2372 14.6286 19.0806 14.4107C18.9241 14.1928 18.7983 13.9396 18.7031 13.6511C18.611 13.3595 18.542 13.0419 18.496 12.6981V12.3896C18.542 12.0244 18.611 11.6929 18.7031 11.3952C18.7983 11.0944 18.9241 10.8351 19.0806 10.6172C19.2372 10.3962 19.4275 10.2259 19.6515 10.1062C19.8786 9.98647 20.1441 9.92662 20.448 9.92662C20.7641 9.92662 21.0419 9.98647 21.2812 10.1062C21.5237 10.2259 21.7278 10.3977 21.8936 10.6218C22.0593 10.8458 22.1836 11.1129 22.2665 11.4229C22.3493 11.7328 22.3908 12.0781 22.3908 12.4587ZM21.1708 12.5554V12.4587C21.1708 12.2377 21.1508 12.0336 21.1109 11.8464C21.071 11.6561 21.0096 11.4904 20.9268 11.3492C20.8439 11.2049 20.7365 11.0929 20.6045 11.0131C20.4725 10.9333 20.3129 10.8934 20.1257 10.8934C19.9385 10.8934 19.7773 10.9241 19.6423 10.9855C19.5073 11.0469 19.3968 11.1343 19.3108 11.2479C19.2249 11.3615 19.1574 11.4965 19.1083 11.653C19.0622 11.8065 19.0315 11.9768 19.0162 12.1641V12.9283C19.0438 13.1554 19.0975 13.3595 19.1773 13.5406C19.2571 13.7217 19.3737 13.8659 19.5272 13.9734C19.6837 14.0808 19.8863 14.1345 20.1349 14.1345C20.3221 14.1345 20.4817 14.0931 20.6137 14.0102C20.7457 13.9273 20.8531 13.8138 20.936 13.6695C21.0188 13.5222 21.0787 13.3534 21.1155 13.1631C21.1523 12.9728 21.1708 12.7702 21.1708 12.5554Z" fill="white"/>
</g>
<defs>
<clipPath id="clip0_67_12554">
<rect width="24" height="24" fill="white"/>
</clipPath>
</defs>
</svg>
