<svg width="24" height="24" viewBox="0 0 24 24" fill="none" xmlns="http://www.w3.org/2000/svg">
<g clip-path="url(#clip0_67_12547)">
<path d="M4.61398 8.27846V15H3.39397V9.70103L1.77804 10.2351V9.24986L4.47587 8.27846H4.61398ZM11.5243 12.5554V13.513H6.69489L6.64425 12.7764L9.48479 8.29687H10.4562L9.40653 10.0785L7.88267 12.5554H11.5243ZM10.7278 8.29687V15H9.50781V8.29687H10.7278ZM16.9107 12.5554V13.513H12.0813L12.0307 12.7764L14.8712 8.29687H15.8426L14.793 10.0785L13.2691 12.5554H16.9107ZM16.1143 8.29687V15H14.8943V8.29687H16.1143ZM18.9226 10.9763V16.9152H17.7026V10.0187H18.8305L18.9226 10.9763ZM22.1222 12.4587V12.5554C22.1222 12.9176 22.0792 13.2536 21.9933 13.5636C21.9104 13.8705 21.7877 14.1391 21.625 14.3693C21.4623 14.5964 21.2598 14.7744 21.0173 14.9033C20.7779 15.0292 20.5017 15.0921 20.1886 15.0921C19.8817 15.0921 19.6147 15.0338 19.3876 14.9171C19.1604 14.7974 18.9686 14.6286 18.8121 14.4107C18.6556 14.1928 18.5297 13.9396 18.4346 13.6511C18.3425 13.3595 18.2734 13.0419 18.2274 12.6981V12.3896C18.2734 12.0244 18.3425 11.6929 18.4346 11.3952C18.5297 11.0944 18.6556 10.8351 18.8121 10.6172C18.9686 10.3962 19.1589 10.2259 19.383 10.1062C19.6101 9.98647 19.8756 9.92662 20.1794 9.92662C20.4955 9.92662 20.7733 9.98647 21.0127 10.1062C21.2552 10.2259 21.4593 10.3977 21.625 10.6218C21.7907 10.8458 21.915 11.1129 21.9979 11.4229C22.0808 11.7328 22.1222 12.0781 22.1222 12.4587ZM20.9022 12.5554V12.4587C20.9022 12.2377 20.8823 12.0336 20.8424 11.8464C20.8025 11.6561 20.7411 11.4904 20.6582 11.3492C20.5753 11.2049 20.4679 11.0929 20.3359 11.0131C20.204 10.9333 20.0444 10.8934 19.8571 10.8934C19.6699 10.8934 19.5088 10.9241 19.3737 10.9855C19.2387 11.0469 19.1282 11.1343 19.0423 11.2479C18.9563 11.3615 18.8888 11.4965 18.8397 11.653C18.7937 11.8065 18.763 11.9768 18.7476 12.1641V12.9283C18.7753 13.1554 18.829 13.3595 18.9088 13.5406C18.9886 13.7217 19.1052 13.8659 19.2586 13.9734C19.4152 14.0808 19.6177 14.1345 19.8664 14.1345C20.0536 14.1345 20.2132 14.0931 20.3451 14.0102C20.4771 13.9273 20.5845 13.8138 20.6674 13.6695C20.7503 13.5222 20.8101 13.3534 20.847 13.1631C20.8838 12.9728 20.9022 12.7702 20.9022 12.5554Z" fill="white"/>
</g>
<defs>
<clipPath id="clip0_67_12547">
<rect width="24" height="24" fill="white"/>
</clipPath>
</defs>
</svg>
