<svg width="24" height="24" viewBox="0 0 24 24" fill="none" xmlns="http://www.w3.org/2000/svg">
<g clip-path="url(#clip0_67_12641)">
<path d="M5.30775 17.5C4.80258 17.5 4.375 17.325 4.025 16.975C3.675 16.625 3.5 16.1974 3.5 15.6923V8.30775C3.5 7.80258 3.675 7.375 4.025 7.025C4.375 6.675 4.80258 6.5 5.30775 6.5H18.6923C19.1974 6.5 19.625 6.675 19.975 7.025C20.325 7.375 20.5 7.80258 20.5 8.30775V15.6923C20.5 16.1974 20.325 16.625 19.975 16.975C19.625 17.325 19.1974 17.5 18.6923 17.5H5.30775ZM5.30775 16H18.6923C18.7692 16 18.8398 15.9679 18.9038 15.9038C18.9679 15.8398 19 15.7692 19 15.6923V8.30775C19 8.23075 18.9679 8.16025 18.9038 8.09625C18.8398 8.03208 18.7692 8 18.6923 8H5.30775C5.23075 8 5.16025 8.03208 5.09625 8.09625C5.03208 8.16025 5 8.23075 5 8.30775V15.6923C5 15.7692 5.03208 15.8398 5.09625 15.9038C5.16025 15.9679 5.23075 16 5.30775 16Z" fill="white"/>
</g>
<defs>
<clipPath id="clip0_67_12641">
<rect width="24" height="24" fill="white"/>
</clipPath>
</defs>
</svg>
