<svg width="24" height="24" viewBox="0 0 24 24" fill="none" xmlns="http://www.w3.org/2000/svg">
<g clip-path="url(#clip0_96_4264)">
<path d="M10.7095 12.0005L14.7827 7.9275C14.9211 7.789 14.9919 7.61492 14.9952 7.40525C14.9984 7.19575 14.9276 7.0185 14.7827 6.8735C14.6377 6.72867 14.4621 6.65625 14.2558 6.65625C14.0494 6.65625 13.8738 6.72867 13.7288 6.8735L9.2345 11.3678C9.141 11.4614 9.075 11.5602 9.0365 11.664C8.998 11.7678 8.97875 11.88 8.97875 12.0005C8.97875 12.121 8.998 12.2332 9.0365 12.337C9.075 12.4408 9.141 12.5396 9.2345 12.6333L13.7288 17.1275C13.8673 17.2658 14.0413 17.3367 14.251 17.34C14.4605 17.3432 14.6377 17.2723 14.7827 17.1275C14.9276 16.9825 15 16.8068 15 16.6005C15 16.3942 14.9276 16.2185 14.7827 16.0735L10.7095 12.0005Z" fill="white"/>
</g>
<defs>
<clipPath id="clip0_96_4264">
<rect width="24" height="24" fill="white"/>
</clipPath>
</defs>
</svg>
