<svg width="24" height="24" viewBox="0 0 24 24" fill="none" xmlns="http://www.w3.org/2000/svg">
<g clip-path="url(#clip0_67_12608)">
<path d="M5.30775 19.5C4.80258 19.5 4.375 19.325 4.025 18.975C3.675 18.625 3.5 18.1974 3.5 17.6923V6.30775C3.5 5.80258 3.675 5.375 4.025 5.025C4.375 4.675 4.80258 4.5 5.30775 4.5H18.6923C19.1974 4.5 19.625 4.675 19.975 5.025C20.325 5.375 20.5 5.80258 20.5 6.30775V17.6923C20.5 18.1974 20.325 18.625 19.975 18.975C19.625 19.325 19.1974 19.5 18.6923 19.5H5.30775ZM5.30775 18H18.6923C18.7692 18 18.8398 17.9679 18.9038 17.9038C18.9679 17.8398 19 17.7692 19 17.6923V6.30775C19 6.23075 18.9679 6.16025 18.9038 6.09625C18.8398 6.03208 18.7692 6 18.6923 6H5.30775C5.23075 6 5.16025 6.03208 5.09625 6.09625C5.03208 6.16025 5 6.23075 5 6.30775V17.6923C5 17.7692 5.03208 17.8398 5.09625 17.9038C5.16025 17.9679 5.23075 18 5.30775 18ZM7.38475 14.8463H10C10.2897 14.8463 10.5352 14.7456 10.7365 14.5442C10.9378 14.3429 11.0385 14.0974 11.0385 13.8077V13.5C11.0385 13.3757 10.9981 13.2731 10.9173 13.1923C10.8366 13.1116 10.7341 13.0712 10.6098 13.0712H10.275C10.1507 13.0712 10.0481 13.1116 9.96725 13.1923C9.88658 13.2731 9.84625 13.3757 9.84625 13.5C9.84625 13.5385 9.83017 13.5738 9.798 13.6058C9.766 13.6378 9.73075 13.6538 9.69225 13.6538H7.69225C7.65392 13.6538 7.61867 13.6378 7.5865 13.6058C7.5545 13.5738 7.5385 13.5385 7.5385 13.5V10.5C7.5385 10.4615 7.5545 10.4263 7.5865 10.3943C7.61867 10.3623 7.65392 10.3462 7.69225 10.3462H9.69225C9.73075 10.3462 9.766 10.3623 9.798 10.3943C9.83017 10.4263 9.84625 10.4615 9.84625 10.5C9.84625 10.6243 9.88658 10.7269 9.96725 10.8078C10.0481 10.8884 10.1507 10.9288 10.275 10.9288H10.6098C10.7341 10.9288 10.8366 10.8884 10.9173 10.8078C10.9981 10.7269 11.0385 10.6243 11.0385 10.5V10.1923C11.0385 9.90258 10.9378 9.65708 10.7365 9.45575C10.5352 9.25442 10.2897 9.15375 10 9.15375H7.38475C7.09492 9.15375 6.84933 9.25442 6.648 9.45575C6.44683 9.65708 6.34625 9.90258 6.34625 10.1923V13.8077C6.34625 14.0974 6.44683 14.3429 6.648 14.5442C6.84933 14.7456 7.09492 14.8463 7.38475 14.8463ZM16.6152 9.15375H14C13.7103 9.15375 13.4648 9.25442 13.2635 9.45575C13.0622 9.65708 12.9615 9.90258 12.9615 10.1923V13.8077C12.9615 14.0974 13.0622 14.3429 13.2635 14.5442C13.4648 14.7456 13.7103 14.8463 14 14.8463H16.6152C16.9051 14.8463 17.1507 14.7456 17.352 14.5442C17.5532 14.3429 17.6538 14.0974 17.6538 13.8077V13.5C17.6538 13.3757 17.6134 13.2731 17.5328 13.1923C17.4519 13.1116 17.3493 13.0712 17.225 13.0712H16.8903C16.7659 13.0712 16.6634 13.1116 16.5828 13.1923C16.5019 13.2731 16.4615 13.3757 16.4615 13.5C16.4615 13.5385 16.4455 13.5738 16.4135 13.6058C16.3813 13.6378 16.3461 13.6538 16.3077 13.6538H14.3077C14.2692 13.6538 14.234 13.6378 14.202 13.6058C14.1698 13.5738 14.1538 13.5385 14.1538 13.5V10.5C14.1538 10.4615 14.1698 10.4263 14.202 10.3943C14.234 10.3623 14.2692 10.3462 14.3077 10.3462H16.3077C16.3461 10.3462 16.3813 10.3623 16.4135 10.3943C16.4455 10.4263 16.4615 10.4615 16.4615 10.5C16.4615 10.6243 16.5019 10.7269 16.5828 10.8078C16.6634 10.8884 16.7659 10.9288 16.8903 10.9288H17.225C17.3493 10.9288 17.4519 10.8884 17.5328 10.8078C17.6134 10.7269 17.6538 10.6243 17.6538 10.5V10.1923C17.6538 9.90258 17.5532 9.65708 17.352 9.45575C17.1507 9.25442 16.9051 9.15375 16.6152 9.15375Z" fill="white"/>
</g>
<defs>
<clipPath id="clip0_67_12608">
<rect width="24" height="24" fill="white"/>
</clipPath>
</defs>
</svg>
