<svg width="24" height="24" viewBox="0 0 24 24" fill="none" xmlns="http://www.w3.org/2000/svg">
<g clip-path="url(#clip0_50_9583)">
<path d="M11.9995 12.7095L16.0725 16.7827C16.211 16.9211 16.3851 16.9919 16.5947 16.9952C16.8042 16.9984 16.9815 16.9276 17.1265 16.7827C17.2713 16.6377 17.3438 16.4621 17.3438 16.2558C17.3438 16.0494 17.2713 15.8738 17.1265 15.7288L12.6322 11.2345C12.5386 11.141 12.4398 11.075 12.336 11.0365C12.2322 10.998 12.12 10.9787 11.9995 10.9787C11.879 10.9787 11.7668 10.998 11.663 11.0365C11.5592 11.075 11.4604 11.141 11.3667 11.2345L6.8725 15.7288C6.73417 15.8673 6.66333 16.0413 6.66 16.251C6.65683 16.4605 6.72767 16.6377 6.8725 16.7827C7.0175 16.9276 7.19316 17 7.3995 17C7.60583 17 7.7815 16.9276 7.9265 16.7827L11.9995 12.7095Z" fill="#FFAABB"/>
<path d="M11.9995 7.7095L16.0725 11.7827C16.211 11.9211 16.3851 11.9919 16.5947 11.9952C16.8042 11.9984 16.9815 11.9276 17.1265 11.7827C17.2713 11.6377 17.3438 11.4621 17.3438 11.2558C17.3438 11.0494 17.2713 10.8738 17.1265 10.7288L12.6322 6.2345C12.5386 6.141 12.4398 6.075 12.336 6.0365C12.2322 5.998 12.12 5.97875 11.9995 5.97875C11.879 5.97875 11.7668 5.998 11.663 6.0365C11.5592 6.075 11.4604 6.141 11.3667 6.2345L6.8725 10.7288C6.73417 10.8673 6.66333 11.0413 6.66 11.251C6.65683 11.4605 6.72767 11.6377 6.8725 11.7827C7.0175 11.9276 7.19316 12 7.3995 12C7.60583 12 7.7815 11.9276 7.9265 11.7827L11.9995 7.7095Z" fill="#FFAABB"/>
</g>
<defs>
<clipPath id="clip0_50_9583">
<rect width="24" height="24" fill="white" transform="matrix(0 -1 -1 0 24 24)"/>
</clipPath>
</defs>
</svg>
