<svg width="24" height="24" viewBox="0 0 24 24" fill="none" xmlns="http://www.w3.org/2000/svg">
<g clip-path="url(#clip0_71_33796)">
<path d="M11.0166 5.32872C11.218 4.23736 12.782 4.23736 12.9834 5.32872L13.7229 9.33615C13.796 9.73176 14.0989 10.0451 14.4918 10.1314L18.5528 11.0233C19.6001 11.2533 19.6001 12.7467 18.5528 12.9767L14.4918 13.8686C14.0989 13.9549 13.796 14.2682 13.7229 14.6638L12.9834 18.6713C12.782 19.7626 11.218 19.7626 11.0166 18.6713L10.2771 14.6638C10.204 14.2682 9.90109 13.9549 9.50817 13.8686L5.44723 12.9767C4.39991 12.7467 4.39991 11.2533 5.44723 11.0233L9.50817 10.1314C9.90109 10.0451 10.204 9.73176 10.2771 9.33615L11.0166 5.32872Z" fill="white"/>
</g>
<defs>
<clipPath id="clip0_71_33796">
<rect width="24" height="24" fill="white"/>
</clipPath>
</defs>
</svg>
