<svg width="24" height="25" viewBox="0 0 24 25" fill="none" xmlns="http://www.w3.org/2000/svg">
<g clip-path="url(#clip0_135_14855)">
<path d="M12 18.3223C13.5972 18.3223 14.9548 17.7633 16.073 16.6453C17.191 15.5271 17.75 14.1694 17.75 12.5723C17.75 11.2184 17.3323 10.0219 16.497 8.98277C15.6618 7.94377 14.5872 7.27293 13.273 6.97027C12.9987 6.93693 12.7596 7.0091 12.5558 7.18677C12.3519 7.36427 12.25 7.59018 12.25 7.86452V12.6685L8.85775 16.0608C8.65392 16.2646 8.5635 16.5021 8.5865 16.7733C8.60967 17.0444 8.7315 17.262 8.952 17.426C9.39683 17.7453 9.88125 17.9745 10.4053 18.1135C10.9294 18.2527 11.461 18.3223 12 18.3223ZM12.0017 22.0723C10.6877 22.0723 9.45267 21.8229 8.2965 21.3243C7.14033 20.8256 6.13467 20.1488 5.2795 19.294C4.42433 18.4392 3.74725 17.4339 3.24825 16.2783C2.74942 15.1226 2.5 13.8878 2.5 12.574C2.5 11.26 2.74933 10.0249 3.248 8.86877C3.74667 7.7126 4.42342 6.70693 5.27825 5.85177C6.13308 4.9966 7.13833 4.31952 8.294 3.82052C9.44967 3.32168 10.6844 3.07227 11.9983 3.07227C13.3123 3.07227 14.5473 3.3216 15.7035 3.82027C16.8597 4.31893 17.8653 4.99568 18.7205 5.85052C19.5757 6.70535 20.2528 7.7106 20.7518 8.86627C21.2506 10.0219 21.5 11.2567 21.5 12.5705C21.5 13.8845 21.2507 15.1196 20.752 16.2758C20.2533 17.4319 19.5766 18.4376 18.7218 19.2928C17.8669 20.1479 16.8617 20.825 15.706 21.324C14.5503 21.8228 13.3156 22.0723 12.0017 22.0723ZM12 20.5723C14.2333 20.5723 16.125 19.7973 17.675 18.2473C19.225 16.6973 20 14.8056 20 12.5723C20 10.3389 19.225 8.44727 17.675 6.89727C16.125 5.34727 14.2333 4.57227 12 4.57227C9.76667 4.57227 7.875 5.34727 6.325 6.89727C4.775 8.44727 4 10.3389 4 12.5723C4 14.8056 4.775 16.6973 6.325 18.2473C7.875 19.7973 9.76667 20.5723 12 20.5723Z" fill="white"/>
</g>
<defs>
<clipPath id="clip0_135_14855">
<rect width="24" height="24" fill="white" transform="translate(0 0.572266)"/>
</clipPath>
</defs>
</svg>
