<svg width="24" height="24" viewBox="0 0 24 24" fill="none" xmlns="http://www.w3.org/2000/svg">
<g clip-path="url(#clip0_9_8424)">
<path fill-rule="evenodd" clip-rule="evenodd" d="M11.58 2.03001C12.125 1.95201 12.68 2.02701 13.186 2.24401C13.692 2.46201 14.128 2.81401 14.446 3.26401C14.765 3.71201 14.954 4.24001 14.993 4.78901C15.031 5.33901 14.918 5.88801 14.665 6.37701C14.413 6.86601 14.031 7.27601 13.561 7.56201C13.307 7.71601 13.034 7.83201 12.751 7.90501V8.61001L19.931 13.636C20.198 13.823 20.314 14.163 20.215 14.476C20.117 14.788 19.827 15 19.5 15H18V18C18 18.552 17.552 19 17 19H15V22H14V21H13V22H12V21H11V22H10V21H9V22H8V21H7V22H6V15H4.5C4.173 15 3.883 14.788 3.785 14.476C3.686 14.163 3.802 13.823 4.07 13.636L11.25 8.61001V7.25001C11.25 6.83601 11.586 6.50001 12 6.50001C12.275 6.50001 12.545 6.42401 12.78 6.28101C13.015 6.13801 13.207 5.93301 13.333 5.68801C13.459 5.44401 13.516 5.16901 13.496 4.89501C13.477 4.62001 13.382 4.35601 13.223 4.13201C13.063 3.90701 12.846 3.73201 12.593 3.62201C12.34 3.51301 12.063 3.47601 11.79 3.51501C11.518 3.55301 11.26 3.66601 11.048 3.84101C10.835 4.01501 10.675 4.24501 10.584 4.50501C10.447 4.89601 10.02 5.10201 9.629 4.96501C9.238 4.82901 9.031 4.40101 9.168 4.01001C9.35 3.49001 9.671 3.03001 10.096 2.68201C10.521 2.33201 11.035 2.10701 11.58 2.03001ZM15 15H16.5V17.5H15V15ZM17.12 13.5H6.88L12 9.91501L17.12 13.5Z" fill="white"/>
</g>
<defs>
<clipPath id="clip0_9_8424">
<rect width="24" height="24" fill="white"/>
</clipPath>
</defs>
</svg>
