<svg width="24" height="24" viewBox="0 0 24 24" fill="none" xmlns="http://www.w3.org/2000/svg">
<g clip-path="url(#clip0_123_8984)">
<path d="M12 21.5003C10.8205 21.5003 9.71542 21.2772 8.68475 20.831C7.65392 20.3849 6.75517 19.7784 5.9885 19.0118C5.22183 18.2451 4.61542 17.3464 4.16925 16.3155C3.72308 15.2849 3.5 14.1798 3.5 13.0003C3.5 11.8208 3.72308 10.7157 4.16925 9.68503C4.61542 8.65419 5.22183 7.75544 5.9885 6.98877C6.75517 6.22211 7.65392 5.61569 8.68475 5.16953C9.71542 4.72336 10.8205 4.50028 12 4.50028H12.2655L11.1845 3.41953C11.0397 3.27469 10.9673 3.10161 10.9673 2.90028C10.9673 2.69894 11.0397 2.52078 11.1845 2.36578C11.3333 2.21694 11.51 2.14003 11.7145 2.13503C11.9188 2.12986 12.0986 2.20161 12.2537 2.35028L14.521 4.60803C14.6915 4.77853 14.7768 4.98944 14.7768 5.24078C14.7768 5.49194 14.6915 5.70278 14.521 5.87328L12.273 8.13102C12.1243 8.28619 11.9478 8.36119 11.7433 8.35603C11.5388 8.35086 11.3589 8.27069 11.2038 8.11553C11.0589 7.96053 10.9865 7.78236 10.9865 7.58103C10.9865 7.37969 11.0589 7.20661 11.2038 7.06178L12.2655 6.00028H12C10.05 6.00028 8.39583 6.67944 7.0375 8.03778C5.67917 9.39611 5 11.0503 5 13.0003C5 14.9503 5.67917 16.6044 7.0375 17.9628C8.39583 19.3211 10.05 20.0003 12 20.0003C13.8052 20.0003 15.3693 19.4013 16.6923 18.2033C18.0154 17.0051 18.7712 15.5086 18.9595 13.7138C18.9865 13.5111 19.0743 13.3415 19.223 13.205C19.3718 13.0685 19.5475 13.0003 19.75 13.0003C19.9525 13.0003 20.1282 13.0659 20.277 13.1973C20.4257 13.3288 20.4897 13.4907 20.4693 13.683C20.2871 15.9035 19.3877 17.7615 17.7712 19.257C16.1546 20.7525 14.2308 21.5003 12 21.5003Z" fill="white"/>
</g>
<defs>
<clipPath id="clip0_123_8984">
<rect width="24" height="24" fill="white"/>
</clipPath>
</defs>
</svg>
