<svg width="24" height="24" viewBox="0 0 24 24" fill="none" xmlns="http://www.w3.org/2000/svg">
<g clip-path="url(#clip0_97_4441)">
<path d="M8.69225 10.5H5.30775C4.80258 10.5 4.375 10.325 4.025 9.975C3.675 9.625 3.5 9.19742 3.5 8.69225V5.30775C3.5 4.80258 3.675 4.375 4.025 4.025C4.375 3.675 4.80258 3.5 5.30775 3.5H8.69225C9.19742 3.5 9.625 3.675 9.975 4.025C10.325 4.375 10.5 4.80258 10.5 5.30775V8.69225C10.5 9.19742 10.325 9.625 9.975 9.975C9.625 10.325 9.19742 10.5 8.69225 10.5ZM5.30775 9H8.69225C8.78208 9 8.85583 8.97117 8.9135 8.9135C8.97117 8.85583 9 8.78208 9 8.69225V5.30775C9 5.21792 8.97117 5.14417 8.9135 5.0865C8.85583 5.02883 8.78208 5 8.69225 5H5.30775C5.21792 5 5.14417 5.02883 5.0865 5.0865C5.02883 5.14417 5 5.21792 5 5.30775V8.69225C5 8.78208 5.02883 8.85583 5.0865 8.9135C5.14417 8.97117 5.21792 9 5.30775 9ZM8.69225 20.5H5.30775C4.80258 20.5 4.375 20.325 4.025 19.975C3.675 19.625 3.5 19.1974 3.5 18.6923V15.3077C3.5 14.8026 3.675 14.375 4.025 14.025C4.375 13.675 4.80258 13.5 5.30775 13.5H8.69225C9.19742 13.5 9.625 13.675 9.975 14.025C10.325 14.375 10.5 14.8026 10.5 15.3077V18.6923C10.5 19.1974 10.325 19.625 9.975 19.975C9.625 20.325 9.19742 20.5 8.69225 20.5ZM5.30775 19H8.69225C8.78208 19 8.85583 18.9712 8.9135 18.9135C8.97117 18.8558 9 18.7821 9 18.6923V15.3077C9 15.2179 8.97117 15.1442 8.9135 15.0865C8.85583 15.0288 8.78208 15 8.69225 15H5.30775C5.21792 15 5.14417 15.0288 5.0865 15.0865C5.02883 15.1442 5 15.2179 5 15.3077V18.6923C5 18.7821 5.02883 18.8558 5.0865 18.9135C5.14417 18.9712 5.21792 19 5.30775 19ZM18.6923 10.5H15.3077C14.8026 10.5 14.375 10.325 14.025 9.975C13.675 9.625 13.5 9.19742 13.5 8.69225V5.30775C13.5 4.80258 13.675 4.375 14.025 4.025C14.375 3.675 14.8026 3.5 15.3077 3.5H18.6923C19.1974 3.5 19.625 3.675 19.975 4.025C20.325 4.375 20.5 4.80258 20.5 5.30775V8.69225C20.5 9.19742 20.325 9.625 19.975 9.975C19.625 10.325 19.1974 10.5 18.6923 10.5ZM15.3077 9H18.6923C18.7821 9 18.8558 8.97117 18.9135 8.9135C18.9712 8.85583 19 8.78208 19 8.69225V5.30775C19 5.21792 18.9712 5.14417 18.9135 5.0865C18.8558 5.02883 18.7821 5 18.6923 5H15.3077C15.2179 5 15.1442 5.02883 15.0865 5.0865C15.0288 5.14417 15 5.21792 15 5.30775V8.69225C15 8.78208 15.0288 8.85583 15.0865 8.9135C15.1442 8.97117 15.2179 9 15.3077 9ZM18.6923 20.5H15.3077C14.8026 20.5 14.375 20.325 14.025 19.975C13.675 19.625 13.5 19.1974 13.5 18.6923V15.3077C13.5 14.8026 13.675 14.375 14.025 14.025C14.375 13.675 14.8026 13.5 15.3077 13.5H18.6923C19.1974 13.5 19.625 13.675 19.975 14.025C20.325 14.375 20.5 14.8026 20.5 15.3077V18.6923C20.5 19.1974 20.325 19.625 19.975 19.975C19.625 20.325 19.1974 20.5 18.6923 20.5ZM15.3077 19H18.6923C18.7821 19 18.8558 18.9712 18.9135 18.9135C18.9712 18.8558 19 18.7821 19 18.6923V15.3077C19 15.2179 18.9712 15.1442 18.9135 15.0865C18.8558 15.0288 18.7821 15 18.6923 15H15.3077C15.2179 15 15.1442 15.0288 15.0865 15.0865C15.0288 15.1442 15 15.2179 15 15.3077V18.6923C15 18.7821 15.0288 18.8558 15.0865 18.9135C15.1442 18.9712 15.2179 19 15.3077 19Z" fill="white"/>
</g>
<defs>
<clipPath id="clip0_97_4441">
<rect width="24" height="24" fill="white"/>
</clipPath>
</defs>
</svg>
