<svg width="24" height="24" viewBox="0 0 24 24" fill="none" xmlns="http://www.w3.org/2000/svg">
<g clip-path="url(#clip0_9_8239)">
<path fill-rule="evenodd" clip-rule="evenodd" d="M14.203 4.82983C12.463 4.29583 10.589 4.41183 8.929 5.15683C7.575 5.76483 6.439 6.75683 5.656 7.99983H8.25C8.664 7.99983 9 8.33583 9 8.74983C9 9.16383 8.664 9.49983 8.25 9.49983H3V4.24983C3 3.83583 3.336 3.49983 3.75 3.49983C4.164 3.49983 4.5 3.83583 4.5 4.24983V7.02483C5.435 5.61483 6.754 4.48883 8.315 3.78883C10.307 2.89483 12.556 2.75583 14.643 3.39683C16.731 4.03783 18.513 5.41683 19.66 7.27483C20.806 9.13283 21.238 11.3448 20.875 13.4978C20.511 15.6508 19.377 17.5978 17.685 18.9778C15.992 20.3568 13.855 21.0728 11.673 20.9938C9.491 20.9138 7.413 20.0448 5.824 18.5468C4.236 17.0478 3.246 15.0238 3.04 12.8498C3.001 12.4378 3.304 12.0718 3.716 12.0328C4.128 11.9928 4.494 12.2958 4.534 12.7078C4.705 14.5198 5.53 16.2068 6.854 17.4558C8.177 18.7038 9.909 19.4288 11.728 19.4958C13.546 19.5608 15.326 18.9638 16.738 17.8148C18.148 16.6648 19.093 15.0418 19.395 13.2478C19.698 11.4538 19.339 9.61083 18.383 8.06183C17.428 6.51383 15.943 5.36383 14.203 4.82983ZM12.75 7.49983C12.75 7.08583 12.414 6.74983 12 6.74983C11.586 6.74983 11.25 7.08583 11.25 7.49983V12.3858L11.564 12.6098L15.064 15.1098C15.401 15.3508 15.87 15.2728 16.11 14.9358C16.351 14.5988 16.273 14.1298 15.936 13.8898L12.75 11.6138V7.49983Z" fill="white"/>
</g>
<defs>
<clipPath id="clip0_9_8239">
<rect width="24" height="24" fill="white"/>
</clipPath>
</defs>
</svg>
