<svg width="16" height="15" viewBox="0 0 16 15" fill="none" xmlns="http://www.w3.org/2000/svg">
<path d="M7.69336 2.04064C6.9115 1.32566 5.8615 0.892578 4.76836 0.892578C2.48748 0.892578 0.693359 2.70318 0.693359 4.98658C0.693359 6.38578 1.32329 7.61737 2.32868 8.85529C3.31983 10.0757 4.72587 11.3609 6.37147 12.8652L6.41351 12.9036L6.41427 12.9043L7.35677 13.7623L7.69453 14.0698L8.03123 13.7611L8.97285 12.898L8.97373 12.8971L8.99965 12.8735C10.6519 11.3661 12.0636 10.0782 13.0579 8.85466C14.0634 7.6174 14.6934 6.38579 14.6934 4.98658C14.6934 2.70318 12.8992 0.892578 10.6184 0.892578C9.52522 0.892578 8.47522 1.32566 7.69336 2.04064Z" fill="#FF0000" stroke="white"/>
</svg>
