<svg width="24" height="24" viewBox="0 0 24 24" fill="none" xmlns="http://www.w3.org/2000/svg">
<g clip-path="url(#clip0_9_8394)">
<path fill-rule="evenodd" clip-rule="evenodd" d="M5.99 5.9907C6.38 5.5997 6.38 4.9667 5.99 4.5757C5.6 4.1857 4.966 4.1857 4.575 4.5757C3.6 5.5507 2.827 6.7087 2.3 7.9827C1.772 9.2567 1.5 10.6227 1.5 12.0007C1.5 13.3797 1.772 14.7447 2.3 16.0187C2.827 17.2927 3.6 18.4507 4.575 19.4257C4.965 19.8157 5.599 19.8157 5.99 19.4257C6.38 19.0357 6.38 18.4017 5.99 18.0107C5.2 17.2217 4.574 16.2847 4.147 15.2537C3.72 14.2227 3.5 13.1167 3.5 12.0007C3.5 10.8847 3.72 9.7787 4.147 8.7477C4.574 7.7167 5.2 6.7807 5.99 5.9907ZM8.818 7.4047C9.208 7.7947 9.208 8.4277 8.818 8.8187C8.4 9.2367 8.068 9.7327 7.843 10.2787C7.616 10.8247 7.5 11.4087 7.5 12.0007C7.5 12.5907 7.616 13.1767 7.843 13.7227C8.069 14.2687 8.4 14.7647 8.818 15.1827C9.208 15.5727 9.208 16.2057 8.818 16.5967C8.428 16.9867 7.794 16.9867 7.404 16.5967C6.8 15.9927 6.321 15.2767 5.994 14.4877C5.669 13.6987 5.5 12.8537 5.5 12.0007C5.5 11.1467 5.668 10.3007 5.995 9.5127C6.321 8.7247 6.8 8.0077 7.404 7.4047C7.794 7.0137 8.428 7.0137 8.818 7.4047ZM15.182 7.4047C15.572 7.0137 16.206 7.0137 16.596 7.4047C17.816 8.6237 18.5 10.2767 18.5 12.0007C18.5 13.7247 17.815 15.3777 16.596 16.5967C16.206 16.9867 15.572 16.9867 15.182 16.5967C14.792 16.2067 14.792 15.5727 15.182 15.1827C16.026 14.3387 16.5 13.1937 16.5 12.0007C16.5 10.8067 16.026 9.6627 15.182 8.8187C14.792 8.4287 14.792 7.7947 15.182 7.4047ZM18.01 4.5757C18.4 4.1857 19.034 4.1857 19.425 4.5757C21.394 6.5457 22.5 9.2157 22.5 12.0007C22.5 14.7857 21.394 17.4567 19.425 19.4257C19.035 19.8157 18.401 19.8157 18.01 19.4257C17.62 19.0357 17.62 18.4017 18.01 18.0107C19.605 16.4167 20.5 14.2547 20.5 12.0007C20.5 9.7467 19.605 7.5847 18.01 5.9907C17.62 5.5997 17.62 4.9667 18.01 4.5757ZM12 14.5007C13.38 14.5007 14.5 13.3807 14.5 12.0007C14.5 10.6207 13.38 9.5007 12 9.5007C10.62 9.5007 9.5 10.6207 9.5 12.0007C9.5 13.3807 10.62 14.5007 12 14.5007Z" fill="white"/>
</g>
<defs>
<clipPath id="clip0_9_8394">
<rect width="24" height="24" fill="white"/>
</clipPath>
</defs>
</svg>
