<svg width="24" height="24" viewBox="0 0 24 24" fill="none" xmlns="http://www.w3.org/2000/svg">
<g clip-path="url(#clip0_29_8855)">
<path d="M20.6923 8.4995C21.1679 8.4995 21.5881 8.68191 21.9527 9.04675C22.3176 9.41141 22.5 9.83158 22.5 10.3072V11.9225C22.5 12.0263 22.4891 12.1385 22.4673 12.259C22.4454 12.3795 22.4128 12.4917 22.3693 12.5957L19.5038 19.3572C19.3603 19.6777 19.1199 19.9482 18.7828 20.1687C18.4456 20.3892 18.0949 20.4995 17.7308 20.4995H9.6345C9.13583 20.4995 8.70992 20.3229 8.35675 19.9697C8.00358 19.6164 7.827 19.1904 7.827 18.6917V9.2475C7.827 9.0065 7.87633 8.77483 7.975 8.5525C8.07367 8.33 8.20508 8.13666 8.36925 7.9725L13.6595 2.71675C13.8583 2.52841 14.0885 2.41241 14.35 2.36875C14.6115 2.32525 14.8621 2.36433 15.1018 2.486C15.3416 2.60783 15.5147 2.78666 15.621 3.0225C15.7275 3.2585 15.7487 3.50916 15.6845 3.7745L14.6075 8.4995H20.6923ZM4.30775 20.4995C3.80908 20.4995 3.38308 20.3229 3.02975 19.9697C2.67658 19.6164 2.5 19.1904 2.5 18.6917V10.3072C2.5 9.80858 2.67658 9.38258 3.02975 9.02925C3.38308 8.67608 3.80908 8.4995 4.30775 8.4995H4.51925C5.01792 8.4995 5.44392 8.67608 5.79725 9.02925C6.15042 9.38258 6.327 9.80858 6.327 10.3072V18.7015C6.327 19.2002 6.15042 19.6245 5.79725 19.9745C5.44392 20.3245 5.01792 20.4995 4.51925 20.4995H4.30775Z" fill="white"/>
</g>
<defs>
<clipPath id="clip0_29_8855">
<rect width="24" height="24" fill="white"/>
</clipPath>
</defs>
</svg>
