<svg width="24" height="24" viewBox="0 0 24 24" fill="none" xmlns="http://www.w3.org/2000/svg">
<g clip-path="url(#clip0_21_8264)">
<path d="M21.6004 6.79883H20.0004M8.00039 6.79883H2.40039" stroke="white" stroke-width="1.6" stroke-linecap="round" stroke-linejoin="round"/>
<path d="M21.6004 16.7988H14.0004M3.60039 16.7988H2.40039" stroke="white" stroke-width="1.6" stroke-linecap="round" stroke-linejoin="round"/>
<path d="M13.2124 3.6282C13.3688 2.7483 14.6312 2.7483 14.7876 3.6282L15.0156 4.90989C15.0691 5.21098 15.2896 5.4552 15.5837 5.53911L17.3038 6.02992C18.0778 6.25077 18.0778 7.34767 17.3038 7.56852L15.5837 8.05932C15.2896 8.14323 15.0691 8.38746 15.0156 8.68855L14.7876 9.97024C14.6312 10.8501 13.3688 10.8501 13.2124 9.97024L12.9844 8.68855C12.9309 8.38746 12.7104 8.14323 12.4163 8.05932L10.6962 7.56852C9.92216 7.34767 9.92216 6.25077 10.6962 6.02992L12.4163 5.53911C12.7104 5.4552 12.9309 5.21098 12.9844 4.90989L13.2124 3.6282Z" fill="white"/>
<rect x="6.40039" y="14.4004" width="4.8" height="4.8" rx="1.6" stroke="white" stroke-width="1.6"/>
</g>
<defs>
<clipPath id="clip0_21_8264">
<rect width="24" height="24" fill="white"/>
</clipPath>
</defs>
</svg>
