<svg width="24" height="24" viewBox="0 0 24 24" fill="none" xmlns="http://www.w3.org/2000/svg">
<g clip-path="url(#clip0_9_8343)">
<path fill-rule="evenodd" clip-rule="evenodd" d="M18.617 2.12323C18.854 2.25623 19 2.50623 19 2.77723V15.7772C19 17.4342 17.657 18.7772 16 18.7772C14.343 18.7772 13 17.4342 13 15.7772C13 14.1202 14.343 12.7772 16 12.7772C16.546 12.7772 17.059 12.9232 17.5 13.1782V7.11423V5.35723V4.11323L10 8.69723V9.93923V11.6972V18.7772C10 20.4342 8.657 21.7772 7 21.7772C5.343 21.7772 4 20.4342 4 18.7772C4 17.1202 5.343 15.7772 7 15.7772C7.546 15.7772 8.059 15.9232 8.5 16.1782V8.27723C8.5 8.01623 8.636 7.77323 8.859 7.63723L17.859 2.13723C18.09 1.99623 18.38 1.99023 18.617 2.12323ZM16 14.2772C16.828 14.2772 17.5 14.9492 17.5 15.7772C17.5 16.6052 16.828 17.2772 16 17.2772C15.172 17.2772 14.5 16.6052 14.5 15.7772C14.5 14.9492 15.172 14.2772 16 14.2772ZM7 17.2772C7.828 17.2772 8.5 17.9492 8.5 18.7772C8.5 19.6052 7.828 20.2772 7 20.2772C6.172 20.2772 5.5 19.6052 5.5 18.7772C5.5 17.9492 6.172 17.2772 7 17.2772Z" fill="white"/>
<path d="M10 11.6972L17.5 7.11423V5.35723L10 9.93923V11.6972Z" fill="white"/>
</g>
<defs>
<clipPath id="clip0_9_8343">
<rect width="24" height="24" fill="white"/>
</clipPath>
</defs>
</svg>
