<svg width="24" height="24" viewBox="0 0 24 24" fill="none" xmlns="http://www.w3.org/2000/svg">
<g clip-path="url(#clip0_67_12577)">
<path d="M16.3842 16.5569V7.44141C16.3842 7.22891 16.4562 7.05082 16.6 6.90716C16.7438 6.76332 16.9221 6.69141 17.1347 6.69141C17.3472 6.69141 17.5253 6.76332 17.669 6.90716C17.8125 7.05082 17.8842 7.22891 17.8842 7.44141V16.5569C17.8842 16.7694 17.8123 16.9475 17.6685 17.0912C17.5248 17.235 17.3467 17.3069 17.134 17.3069C16.9213 17.3069 16.7432 17.235 16.5997 17.0912C16.4561 16.9475 16.3842 16.7694 16.3842 16.5569ZM6.11523 15.6144V8.38391C6.11523 8.11274 6.20557 7.89424 6.38623 7.72841C6.56707 7.56274 6.77798 7.47991 7.01898 7.47991C7.10232 7.47991 7.18757 7.48824 7.27473 7.50491C7.3619 7.52157 7.44398 7.56007 7.52098 7.62041L12.9517 11.2512C13.0889 11.3447 13.1902 11.4542 13.2555 11.5799C13.3208 11.7056 13.3535 11.8453 13.3535 11.9992C13.3535 12.153 13.3208 12.2927 13.2555 12.4184C13.1902 12.5441 13.0889 12.6537 12.9517 12.7472L7.52098 16.3779C7.44398 16.4382 7.3619 16.4767 7.27473 16.4934C7.18757 16.5101 7.10232 16.5184 7.01898 16.5184C6.77798 16.5184 6.56707 16.4356 6.38623 16.2699C6.20557 16.1041 6.11523 15.8856 6.11523 15.6144Z" fill="white"/>
</g>
<defs>
<clipPath id="clip0_67_12577">
<rect width="24" height="24" fill="white"/>
</clipPath>
</defs>
</svg>
