<svg width="24" height="24" viewBox="0 0 24 24" fill="none" xmlns="http://www.w3.org/2000/svg">
<g clip-path="url(#clip0_9_8367)">
<path fill-rule="evenodd" clip-rule="evenodd" d="M2 4.89834V2.77734L2.94 3.71734L3.5 4.27734L4 4.77734L4.94 3.83734L5.06 3.71734L6 2.77734L6.94 3.71734L7.06 3.83734L8 4.77734L8.94 3.83734L9.06 3.71734L10 2.77734L10.94 3.71734L11.06 3.83734L12 4.77734L12.94 3.83734L13.06 3.71734L14 2.77734L14.94 3.71734L15.06 3.83734L16 4.77734L16.94 3.83734L17.06 3.71734L18 2.77734L18.94 3.71734L19.06 3.83734L20 4.77734L20.5 4.27734L21.06 3.71734L22 2.77734V18.7773C22 19.8823 21.105 20.7773 20 20.7773H4C2.895 20.7773 2 19.8823 2 18.7773V4.89834ZM10.75 19.2773H6.25V14.0273H10.75V19.2773ZM12 19.2773V12.7773H5V19.2773H4C3.724 19.2773 3.5 19.0533 3.5 18.7773V7.42734L6.014 4.91334L6.939 5.83834L8 6.89734L9.06 5.83734L10 4.89734L10.94 5.83734L12 6.89734L13.06 5.83734L14 4.89734L14.94 5.83734L16 6.89734L17.06 5.83734L17.986 4.91234L20.5 7.42734V18.7773C20.5 19.0533 20.276 19.2773 20 19.2773H12ZM19 8.77734V10.7773H5V8.77734H19ZM14 12.7773H19V14.2773H14V12.7773ZM19 15.7773H14V17.2773H19V15.7773Z" fill="white"/>
</g>
<defs>
<clipPath id="clip0_9_8367">
<rect width="24" height="24" fill="white"/>
</clipPath>
</defs>
</svg>
