<svg width="24" height="24" viewBox="0 0 24 24" fill="none" xmlns="http://www.w3.org/2000/svg">
<g clip-path="url(#clip0_67_12563)">
<path d="M14.1345 12.5385L15.977 14.6385C16.0103 14.682 16.1603 14.7513 16.427 14.8463C16.6757 14.8463 16.8523 14.7328 16.9568 14.5058C17.0613 14.2789 17.0347 14.0712 16.877 13.8828L15.1923 11.9808L16.8865 10.0827C17.0442 9.90058 17.0692 9.70025 16.9615 9.48175C16.8538 9.26308 16.6788 9.15375 16.4365 9.15375C16.3518 9.15375 16.2708 9.17242 16.1932 9.20975C16.1157 9.24692 16.0501 9.2975 15.9962 9.3615L14.1345 11.4423V9.75C14.1345 9.57817 14.0781 9.43583 13.9653 9.323C13.8526 9.21017 13.7103 9.15375 13.5385 9.15375C13.3667 9.15375 13.2243 9.21017 13.1115 9.323C12.9987 9.43583 12.9423 9.57817 12.9423 9.75V14.25C12.9423 14.4218 12.9987 14.5642 13.1115 14.677C13.2243 14.7898 13.3667 14.8463 13.5385 14.8463C13.7103 14.8463 13.8526 14.7898 13.9653 14.677C14.0781 14.5642 14.1345 14.4218 14.1345 14.25V12.5385ZM9.577 13.3463V14.25C9.577 14.4218 9.63342 14.5642 9.74625 14.677C9.85908 14.7898 10.0013 14.8463 10.173 14.8463C10.3448 14.8463 10.4872 14.7898 10.6 14.677C10.7128 14.5642 10.7692 14.4218 10.7692 14.25V13.3463H11.2885C11.4603 13.3463 11.6027 13.2898 11.7155 13.177C11.8282 13.0642 11.8845 12.9218 11.8845 12.75C11.8845 12.5782 11.8282 12.4358 11.7155 12.323C11.6027 12.2102 11.4603 12.1538 11.2885 12.1538H10.7692V9.75C10.7692 9.57817 10.7128 9.43583 10.6 9.323C10.4872 9.21017 10.3448 9.15375 10.173 9.15375C10.0013 9.15375 9.85908 9.21017 9.74625 9.323C9.63342 9.43583 9.577 9.57817 9.577 9.75V12.1538H7.8845V9.75C7.8845 9.57817 7.82817 9.43583 7.7155 9.323C7.60267 9.21017 7.46033 9.15375 7.2885 9.15375C7.11667 9.15375 6.97433 9.21017 6.8615 9.323C6.74867 9.43583 6.69225 9.57817 6.69225 9.75V12.75C6.69225 12.9218 6.74867 13.0642 6.8615 13.177C6.97433 13.2898 7.11667 13.3463 7.2885 13.3463H9.577ZM5.30775 20.5C4.80258 20.5 4.375 20.325 4.025 19.975C3.675 19.625 3.5 19.1974 3.5 18.6923V5.30775C3.5 4.80258 3.675 4.375 4.025 4.025C4.375 3.675 4.80258 3.5 5.30775 3.5H18.6923C19.1974 3.5 19.625 3.675 19.975 4.025C20.325 4.375 20.5 4.80258 20.5 5.30775V18.6923C20.5 19.1974 20.325 19.625 19.975 19.975C19.625 20.325 19.1974 20.5 18.6923 20.5H5.30775ZM5.30775 19H18.6923C18.7692 19 18.8398 18.9679 18.9038 18.9038C18.9679 18.8398 19 18.7692 19 18.6923V5.30775C19 5.23075 18.9679 5.16025 18.9038 5.09625C18.8398 5.03208 18.7692 5 18.6923 5H5.30775C5.23075 5 5.16025 5.03208 5.09625 5.09625C5.03208 5.16025 5 5.23075 5 5.30775V18.6923C5 18.7692 5.03208 18.8398 5.09625 18.9038C5.16025 18.9679 5.23075 19 5.30775 19Z" fill="white"/>
</g>
<defs>
<clipPath id="clip0_67_12563">
<rect width="24" height="24" fill="white"/>
</clipPath>
</defs>
</svg>
