<svg width="24" height="24" viewBox="0 0 24 24" fill="none" xmlns="http://www.w3.org/2000/svg">
<g clip-path="url(#clip0_67_12551)">
<path d="M6.29129 14.0424V15H1.75195V14.1805L3.92955 11.828C4.15667 11.5702 4.33622 11.3461 4.46819 11.1558C4.60017 10.9655 4.69378 10.7937 4.74902 10.6402C4.80734 10.4837 4.8365 10.3348 4.8365 10.1936C4.8365 9.988 4.79967 9.80845 4.726 9.65499C4.65234 9.49847 4.54492 9.37723 4.40374 9.29129C4.26563 9.20536 4.09528 9.16239 3.89272 9.16239C3.66867 9.16239 3.47684 9.21456 3.31724 9.31892C3.16071 9.4202 3.04102 9.56138 2.95815 9.74247C2.87835 9.92355 2.83845 10.1307 2.83845 10.364H1.61844C1.61844 9.96805 1.71052 9.60742 1.89467 9.28209C2.07882 8.95368 2.34277 8.69127 2.68652 8.49484C3.03027 8.29841 3.43848 8.2002 3.91113 8.2002C4.37151 8.2002 4.7613 8.27693 5.0805 8.43038C5.39969 8.58078 5.64216 8.79562 5.8079 9.07492C5.97363 9.35421 6.0565 9.68722 6.0565 10.0739C6.0565 10.2888 6.02121 10.5006 5.95061 10.7093C5.88002 10.918 5.78027 11.1251 5.65137 11.3308C5.52553 11.5333 5.37514 11.739 5.2002 11.9477C5.02525 12.1564 4.83036 12.3697 4.61551 12.5876L3.30804 14.0424H6.29129ZM11.7928 12.5554V13.513H6.96345L6.91281 12.7764L9.75335 8.29687H10.7247L9.67508 10.0785L8.15123 12.5554H11.7928ZM10.9964 8.29687V15H9.77637V8.29687H10.9964ZM16.9629 11.073V12.2009C16.9629 12.7165 16.9107 13.1569 16.8064 13.5222C16.702 13.8874 16.5516 14.1867 16.3552 14.4199C16.1588 14.6501 15.924 14.8205 15.6508 14.9309C15.3777 15.0384 15.0738 15.0921 14.7393 15.0921C14.4722 15.0921 14.2236 15.0583 13.9934 14.9908C13.7633 14.9202 13.5561 14.8128 13.3719 14.6685C13.1908 14.5212 13.0343 14.334 12.9023 14.1069C12.7734 13.8797 12.6737 13.6081 12.6031 13.292C12.5356 12.9759 12.5018 12.6122 12.5018 12.2009V11.073C12.5018 10.5573 12.554 10.1184 12.6583 9.75628C12.7658 9.39411 12.9177 9.09794 13.1141 8.86775C13.3105 8.63756 13.5453 8.47028 13.8185 8.36593C14.0917 8.25851 14.3955 8.2048 14.7301 8.2048C15.0001 8.2048 15.2487 8.23856 15.4759 8.30608C15.7061 8.3736 15.9117 8.47949 16.0928 8.62374C16.2769 8.76493 16.4335 8.94908 16.5624 9.1762C16.6913 9.40025 16.7895 9.67034 16.857 9.98647C16.9276 10.2995 16.9629 10.6617 16.9629 11.073ZM15.7475 12.3666V10.9026C15.7475 10.6448 15.7321 10.4208 15.7015 10.2305C15.6738 10.0371 15.6324 9.87291 15.5771 9.73786C15.5219 9.60282 15.4528 9.49386 15.37 9.41099C15.2871 9.32506 15.192 9.26214 15.0845 9.22224C14.9771 9.18234 14.859 9.16239 14.7301 9.16239C14.5705 9.16239 14.4277 9.19461 14.3019 9.25907C14.1761 9.32045 14.0702 9.41867 13.9842 9.55371C13.8983 9.68876 13.8323 9.8683 13.7863 10.0924C13.7433 10.3133 13.7218 10.5834 13.7218 10.9026V12.3666C13.7218 12.6244 13.7356 12.85 13.7633 13.0434C13.7939 13.2367 13.8369 13.4025 13.8922 13.5406C13.9505 13.6787 14.0195 13.7923 14.0993 13.8813C14.1822 13.9672 14.2773 14.0317 14.3848 14.0746C14.4922 14.1145 14.6104 14.1345 14.7393 14.1345C14.9019 14.1345 15.0446 14.1023 15.1674 14.0378C15.2932 13.9734 15.3991 13.8721 15.4851 13.734C15.571 13.5928 15.6355 13.4102 15.6784 13.1861C15.7245 12.959 15.7475 12.6858 15.7475 12.3666ZM19.1911 10.9763V16.9152H17.9711V10.0187H19.0991L19.1911 10.9763ZM22.3908 12.4587V12.5554C22.3908 12.9176 22.3478 13.2536 22.2619 13.5636C22.179 13.8705 22.0562 14.1391 21.8936 14.3693C21.7309 14.5964 21.5283 14.7744 21.2859 14.9033C21.0465 15.0292 20.7702 15.0921 20.4572 15.0921C20.1503 15.0921 19.8832 15.0338 19.6561 14.9171C19.429 14.7974 19.2372 14.6286 19.0806 14.4107C18.9241 14.1928 18.7983 13.9396 18.7031 13.6511C18.611 13.3595 18.542 13.0419 18.496 12.6981V12.3896C18.542 12.0244 18.611 11.6929 18.7031 11.3952C18.7983 11.0944 18.9241 10.8351 19.0806 10.6172C19.2372 10.3962 19.4275 10.2259 19.6515 10.1062C19.8786 9.98647 20.1441 9.92662 20.448 9.92662C20.7641 9.92662 21.0419 9.98647 21.2812 10.1062C21.5237 10.2259 21.7278 10.3977 21.8936 10.6218C22.0593 10.8458 22.1836 11.1129 22.2665 11.4229C22.3493 11.7328 22.3908 12.0781 22.3908 12.4587ZM21.1708 12.5554V12.4587C21.1708 12.2377 21.1508 12.0336 21.1109 11.8464C21.071 11.6561 21.0096 11.4904 20.9268 11.3492C20.8439 11.2049 20.7365 11.0929 20.6045 11.0131C20.4725 10.9333 20.3129 10.8934 20.1257 10.8934C19.9385 10.8934 19.7773 10.9241 19.6423 10.9855C19.5073 11.0469 19.3968 11.1343 19.3108 11.2479C19.2249 11.3615 19.1574 11.4965 19.1083 11.653C19.0622 11.8065 19.0315 11.9768 19.0162 12.1641V12.9283C19.0438 13.1554 19.0975 13.3595 19.1773 13.5406C19.2571 13.7217 19.3737 13.8659 19.5272 13.9734C19.6837 14.0808 19.8863 14.1345 20.1349 14.1345C20.3221 14.1345 20.4817 14.0931 20.6137 14.0102C20.7457 13.9273 20.8531 13.8138 20.936 13.6695C21.0188 13.5222 21.0787 13.3534 21.1155 13.1631C21.1523 12.9728 21.1708 12.7702 21.1708 12.5554Z" fill="white"/>
</g>
<defs>
<clipPath id="clip0_67_12551">
<rect width="24" height="24" fill="white"/>
</clipPath>
</defs>
</svg>
