<svg width="24" height="24" viewBox="0 0 24 24" fill="none" xmlns="http://www.w3.org/2000/svg">
<g clip-path="url(#clip0_135_15114)">
<path d="M4.30775 19.5C3.80258 19.5 3.375 19.325 3.025 18.975C2.675 18.625 2.5 18.1974 2.5 17.6923V6.30775C2.5 5.80258 2.675 5.375 3.025 5.025C3.375 4.675 3.80258 4.5 4.30775 4.5H19.6923C20.1974 4.5 20.625 4.675 20.975 5.025C21.325 5.375 21.5 5.80258 21.5 6.30775V17.6923C21.5 18.1974 21.325 18.625 20.975 18.975C20.625 19.325 20.1974 19.5 19.6923 19.5H4.30775ZM4.30775 18H19.6923C19.7693 18 19.8398 17.9679 19.9038 17.9038C19.9679 17.8398 20 17.7692 20 17.6923V6.30775C20 6.23075 19.9679 6.16025 19.9038 6.09625C19.8398 6.03208 19.7693 6 19.6923 6H4.30775C4.23075 6 4.16025 6.03208 4.09625 6.09625C4.03208 6.16025 4 6.23075 4 6.30775V17.6923C4 17.7692 4.03208 17.8398 4.09625 17.9038C4.16025 17.9679 4.23075 18 4.30775 18ZM7.5 10.5H16.5C16.8462 10.5 17.141 10.3782 17.3845 10.1345C17.6282 9.891 17.75 9.59617 17.75 9.25C17.75 8.90383 17.6282 8.609 17.3845 8.3655C17.141 8.12183 16.8462 8 16.5 8H7.5C7.15383 8 6.859 8.12183 6.6155 8.3655C6.37183 8.609 6.25 8.90383 6.25 9.25C6.25 9.59617 6.37183 9.891 6.6155 10.1345C6.859 10.3782 7.15383 10.5 7.5 10.5Z" fill="white"/>
</g>
<defs>
<clipPath id="clip0_135_15114">
<rect width="24" height="24" fill="white"/>
</clipPath>
</defs>
</svg>
