<svg width="24" height="24" viewBox="0 0 24 24" fill="none" xmlns="http://www.w3.org/2000/svg">
<g clip-path="url(#clip0_67_14200)">
<path d="M12.1 21.5008C10.77 21.5008 9.52308 21.2486 8.35925 20.7441C7.19542 20.2396 6.18017 19.554 5.3135 18.6873C4.44683 17.8207 3.76125 16.8054 3.25675 15.6416C2.75225 14.4778 2.5 13.2308 2.5 11.9008C2.5 9.71118 3.16767 7.76084 4.503 6.04984C5.83817 4.33901 7.56475 3.21693 9.68275 2.68359C9.49808 4.28876 9.66342 5.84518 10.1788 7.35284C10.6943 8.86051 11.5244 10.1868 12.6693 11.3316C13.8141 12.4764 15.1403 13.3066 16.648 13.8221C18.1557 14.3374 19.7121 14.5028 21.3173 14.3181C20.7943 16.4361 19.6747 18.1627 17.9585 19.4978C16.2425 20.8332 14.2897 21.5008 12.1 21.5008ZM12.1 20.0008C13.5667 20.0008 14.925 19.6342 16.175 18.9008C17.425 18.1675 18.4083 17.1583 19.125 15.8731C17.6917 15.7396 16.3333 15.3766 15.05 14.7841C13.7667 14.1916 12.6167 13.3863 11.6 12.3683C10.5833 11.3503 9.775 10.2013 9.175 8.92109C8.575 7.64093 8.21667 6.28418 8.1 4.85084C6.81667 5.56751 5.8125 6.55501 5.0875 7.81334C4.3625 9.07168 4 10.4342 4 11.9008C4 14.1508 4.7875 16.0633 6.3625 17.6383C7.9375 19.2133 9.85 20.0008 12.1 20.0008Z" fill="white"/>
</g>
<defs>
<clipPath id="clip0_67_14200">
<rect width="24" height="24" fill="white"/>
</clipPath>
</defs>
</svg>
