<svg width="24" height="24" viewBox="0 0 24 24" fill="none" xmlns="http://www.w3.org/2000/svg">
<g clip-path="url(#clip0_9_8219)">
<path fill-rule="evenodd" clip-rule="evenodd" d="M18.452 8.85196C20.356 7.78596 20.993 5.45196 19.874 3.63796C18.755 1.82396 16.304 1.21796 14.399 2.28296L5.55202 7.24796C4.26202 7.96996 3.50302 9.31696 3.58402 10.739C3.66502 12.162 4.57302 13.422 5.93702 14.007L6.87902 14.411L5.55202 15.153C3.64802 16.219 3.01102 18.553 4.13002 20.367C5.24902 22.181 7.70002 22.788 9.60502 21.722L18.452 16.757C19.742 16.035 20.501 14.689 20.42 13.267C20.339 11.844 19.431 10.583 18.067 9.99796L17.125 9.59496L18.452 8.85196ZM10.002 14.568C10.002 14.6117 10.0135 14.6548 10.0354 14.6927C10.0573 14.7306 10.0887 14.7621 10.1266 14.7841C10.1644 14.8061 10.2074 14.8177 10.2512 14.8179C10.295 14.818 10.338 14.8067 10.376 14.785L14.826 12.218C14.864 12.196 14.8956 12.1645 14.9175 12.1265C14.9395 12.0885 14.951 12.0453 14.951 12.0015C14.951 11.9576 14.9395 11.9145 14.9175 11.8765C14.8956 11.8385 14.864 11.8069 14.826 11.785L10.376 9.21796C10.3381 9.19629 10.2951 9.18494 10.2514 9.18504C10.2077 9.18515 10.1648 9.1967 10.127 9.21855C10.0891 9.24041 10.0577 9.2718 10.0358 9.30959C10.0138 9.34739 10.0022 9.39027 10.002 9.43396V14.568Z" fill="white"/>
</g>
<defs>
<clipPath id="clip0_9_8219">
<rect width="24" height="24" fill="white"/>
</clipPath>
</defs>
</svg>
