<svg width="24" height="24" viewBox="0 0 24 24" fill="none" xmlns="http://www.w3.org/2000/svg">
<g clip-path="url(#clip0_9_8230)">
<path fill-rule="evenodd" clip-rule="evenodd" d="M5.5 3C5.10218 3 4.72064 3.15804 4.43934 3.43934C4.15804 3.72064 4 4.10218 4 4.5H20C20 4.10218 19.842 3.72064 19.5607 3.43934C19.2794 3.15804 18.8978 3 18.5 3H5.5ZM2 7.5C2 7.10218 2.15804 6.72064 2.43934 6.43934C2.72064 6.15804 3.10218 6 3.5 6H20.5C20.8978 6 21.2794 6.15804 21.5607 6.43934C21.842 6.72064 22 7.10218 22 7.5V18.5C22 18.8978 21.842 19.2794 21.5607 19.5607C21.2794 19.842 20.8978 20 20.5 20H3.5C3.10218 20 2.72064 19.842 2.43934 19.5607C2.15804 19.2794 2 18.8978 2 18.5V7.5ZM10 10.37C10.0001 10.2821 10.0235 10.1958 10.0676 10.1198C10.1117 10.0438 10.1751 9.98075 10.2514 9.93705C10.3276 9.89334 10.4141 9.87051 10.5019 9.87086C10.5898 9.8712 10.6761 9.8947 10.752 9.939L16 13L10.752 16.061C10.6761 16.1053 10.5898 16.1288 10.5019 16.1291C10.4141 16.1295 10.3276 16.1067 10.2514 16.063C10.1751 16.0192 10.1117 15.9562 10.0676 15.8802C10.0235 15.8042 10.0001 15.7179 10 15.63V10.37Z" fill="white"/>
</g>
<defs>
<clipPath id="clip0_9_8230">
<rect width="24" height="24" fill="white"/>
</clipPath>
</defs>
</svg>
