<svg width="24" height="24" viewBox="0 0 24 24" fill="none" xmlns="http://www.w3.org/2000/svg">
<g clip-path="url(#clip0_67_14690)">
<path d="M7.49542 16.7059V7.30017C7.49542 7.11 7.56392 6.94626 7.70092 6.80892C7.83809 6.67176 8.00284 6.60317 8.19517 6.60317C8.3875 6.60317 8.55217 6.67176 8.68917 6.80892C8.826 6.94626 8.89442 7.11 8.89442 7.30017V16.7059C8.89442 16.8998 8.82551 17.0644 8.68767 17.1999C8.54984 17.3353 8.38542 17.4029 8.19442 17.4029C8.00342 17.4029 7.83917 17.3353 7.70167 17.1999C7.56417 17.0644 7.49542 16.8998 7.49542 16.7059ZM11.3022 20.6079V3.39817C11.3022 3.20801 11.3698 3.04425 11.5052 2.90692C11.6407 2.76975 11.8054 2.70117 11.9994 2.70117C12.1934 2.70117 12.3588 2.76975 12.4957 2.90692C12.6327 3.04425 12.7012 3.20801 12.7012 3.39817V20.6079C12.7012 20.8018 12.6326 20.9663 12.4954 21.1017C12.3584 21.2372 12.1929 21.3049 11.9989 21.3049C11.8049 21.3049 11.6403 21.2372 11.5049 21.1017C11.3698 20.9663 11.3022 20.8018 11.3022 20.6079ZM3.70117 12.8704V11.1007C3.70117 10.9115 3.76967 10.7484 3.90667 10.6114C4.04384 10.4744 4.20859 10.4059 4.40092 10.4059C4.59342 10.4059 4.75809 10.4746 4.89492 10.6119C5.03176 10.7491 5.10017 10.9128 5.10017 11.1029V12.8704C5.10017 13.0643 5.03151 13.2297 4.89417 13.3667C4.75684 13.5037 4.59301 13.5722 4.40267 13.5722C4.20867 13.5722 4.04325 13.5037 3.90642 13.3667C3.76959 13.2297 3.70117 13.0643 3.70117 12.8704ZM15.0964 16.7059V7.30017C15.0964 7.11 15.1641 6.94626 15.2994 6.80892C15.4349 6.67176 15.5997 6.60317 15.7937 6.60317C15.9877 6.60317 16.1531 6.67176 16.2899 6.80892C16.4269 6.94626 16.4954 7.11 16.4954 7.30017V16.7059C16.4954 16.8998 16.4268 17.0644 16.2897 17.1999C16.1527 17.3353 15.9872 17.4029 15.7932 17.4029C15.5992 17.4029 15.4345 17.3353 15.2992 17.1999C15.164 17.0644 15.0964 16.8998 15.0964 16.7059ZM18.8982 12.8704V11.1007C18.8982 10.9115 18.9668 10.7484 19.1039 10.6114C19.2409 10.4744 19.4057 10.4059 19.5982 10.4059C19.7905 10.4059 19.9551 10.4746 20.0919 10.6119C20.2288 10.7491 20.2972 10.9128 20.2972 11.1029V12.8704C20.2972 13.0643 20.2285 13.2297 20.0912 13.3667C19.9538 13.5037 19.79 13.5722 19.5997 13.5722C19.4057 13.5722 19.2403 13.5037 19.1034 13.3667C18.9666 13.2297 18.8982 13.0643 18.8982 12.8704Z" fill="white"/>
</g>
<defs>
<clipPath id="clip0_67_14690">
<rect width="24" height="24" fill="white"/>
</clipPath>
</defs>
</svg>
