<svg width="24" height="24" viewBox="0 0 24 24" fill="none" xmlns="http://www.w3.org/2000/svg">
<g clip-path="url(#clip0_9_8323)">
<path d="M2.5 17.654V5.57728C2.5 5.08011 2.677 4.65453 3.031 4.30053C3.385 3.94653 3.81058 3.76953 4.30775 3.76953H19.6923C20.1894 3.76953 20.615 3.94653 20.969 4.30053C21.323 4.65453 21.5 5.08011 21.5 5.57728V17.654H22.75C22.9625 17.654 23.1406 17.7259 23.2843 17.8698C23.4281 18.0136 23.5 18.1919 23.5 18.4045C23.5 18.617 23.4281 18.7951 23.2843 18.9388C23.1406 19.0823 22.9625 19.154 22.75 19.154H1.25C1.0375 19.154 0.859417 19.0821 0.71575 18.9383C0.571917 18.7944 0.5 18.6163 0.5 18.4038C0.5 18.1911 0.571917 18.013 0.71575 17.8695C0.859417 17.7259 1.0375 17.654 1.25 17.654H2.5ZM10.4423 17.654H13.5577C13.6756 17.654 13.7788 17.6099 13.8673 17.5215C13.9558 17.433 14 17.3298 14 17.2118C14 17.0938 13.9558 16.9906 13.8673 16.9023C13.7788 16.8138 13.6756 16.7695 13.5577 16.7695H10.4423C10.3244 16.7695 10.2213 16.8138 10.1328 16.9023C10.0443 16.9906 10 17.0938 10 17.2118C10 17.3298 10.0443 17.433 10.1328 17.5215C10.2213 17.6099 10.3244 17.654 10.4423 17.654Z" fill="white"/>
</g>
<defs>
<clipPath id="clip0_9_8323">
<rect width="24" height="24" fill="white"/>
</clipPath>
</defs>
</svg>
