<svg width="1312" height="284" viewBox="0 0 1312 284" fill="none" xmlns="http://www.w3.org/2000/svg">
<path d="M205.108 283.216C205.108 283.216 333.75 283.217 365.658 274.72C383.625 269.905 397.136 256.028 401.879 238.893C410.647 207.456 410.647 141.325 410.647 141.325C410.647 141.325 410.647 75.6188 401.879 44.465C397.136 26.9056 383.625 13.3111 365.658 8.63808C333.75 -3.38021e-05 205.108 0 205.108 0C205.108 0 76.7537 -3.38021e-05 44.9886 8.63808C27.3094 13.3111 13.511 26.9056 8.48028 44.465C2.41433e-06 75.6188 0 141.325 0 141.325C0 141.325 2.41433e-06 207.456 8.48028 238.893C13.511 256.028 27.3094 269.905 44.9886 274.72C76.7537 283.217 205.108 283.216 205.108 283.216Z" fill="#FF0033"/>
<path d="M269.006 141.613L162.805 81.4297V201.797L269.006 141.613Z" fill="white"/>
<path d="M525.911 267.653V190.335L575.047 29.752H538.372L519.681 102.68C515.433 119.39 511.61 136.808 508.777 152.95H506.512C504.954 138.79 500.423 120.24 495.892 102.397L477.767 29.752H441.092L489.52 190.335V267.653H525.911Z" fill="white"/>
<path d="M624.532 89.2266C581.627 89.2266 566.9 114.008 566.9 167.394V192.742C566.9 240.605 576.105 270.626 623.683 270.626C670.553 270.626 680.607 242.021 680.607 192.742V167.394C680.607 119.672 670.978 89.2266 624.532 89.2266ZM642.799 208.46C642.799 231.684 638.693 246.269 623.824 246.269C609.239 246.269 605.133 231.542 605.133 208.46V151.25C605.133 131.426 607.965 113.725 623.824 113.725C640.533 113.725 642.799 132.417 642.799 151.25V208.46Z" fill="white"/>
<path d="M740.235 270.347C760.909 270.347 773.794 261.709 784.415 246.132H785.972L787.53 267.656H815.707V92.6289H778.326V233.245C774.36 240.184 765.155 245.282 756.518 245.282C745.614 245.282 742.217 236.644 742.217 222.2V92.6289H704.975V223.899C704.975 252.362 713.189 270.347 740.235 270.347Z" fill="white"/>
<path d="M889.556 267.653V58.7816H932.603V29.752H809.551V58.7816H852.598V267.653H889.556Z" fill="white"/>
<path d="M961.189 270.345C981.862 270.345 994.748 261.707 1005.37 246.13H1006.93L1008.48 267.654H1036.66V92.627H999.28V233.243C995.315 240.182 986.11 245.28 977.473 245.28C966.569 245.28 963.171 236.642 963.171 222.198V92.627H925.93V223.897C925.93 252.36 934.143 270.345 961.189 270.345Z" fill="white"/>
<path d="M1142.43 88.7932C1124.3 88.7932 1111.28 96.7233 1102.64 109.61H1100.8C1101.93 92.6166 1102.78 78.1726 1102.78 66.7024V20.3965H1066.67L1066.53 172.483L1066.67 267.644H1098.11L1100.8 250.651H1101.79C1110.14 262.121 1123.03 269.343 1140.16 269.343C1168.63 269.343 1180.8 244.845 1180.8 192.733V165.686C1180.8 116.973 1175.28 88.7932 1142.43 88.7932ZM1143.7 192.733C1143.7 225.303 1138.89 244.703 1123.74 244.703C1116.66 244.703 1106.89 241.305 1102.5 234.932V130.851C1106.32 120.938 1114.82 113.716 1124.3 113.716C1139.6 113.716 1143.7 132.267 1143.7 166.111V192.733Z" fill="white"/>
<path d="M1312 162.853C1312 120.655 1307.75 89.3594 1259.18 89.3594C1213.45 89.3594 1203.25 119.805 1203.25 164.553V195.282C1203.25 238.897 1212.6 270.617 1258.05 270.617C1294.02 270.617 1312.57 252.633 1310.44 217.798L1278.58 216.098C1278.16 237.623 1273.2 246.402 1258.9 246.402C1240.92 246.402 1240.07 229.268 1240.07 203.778V191.883H1312V162.853ZM1258.33 112.866C1275.61 112.866 1276.88 129.151 1276.88 156.764V171.067H1240.07V156.764C1240.07 129.435 1241.2 112.866 1258.33 112.866Z" fill="white"/>
</svg>
