<svg width="75" height="75" viewBox="0 0 75 75" fill="none" xmlns="http://www.w3.org/2000/svg">
<g clip-path="url(#clip0_269_8988)">
<path d="M75 37.5C75 16.7893 58.2107 0 37.5 0C16.7893 0 0 16.7893 0 37.5C0 58.2107 16.7893 75 37.5 75C58.2107 75 75 58.2107 75 37.5Z" fill="#E7E7E7"/>
<g clip-path="url(#clip1_269_8988)">
<path d="M25.5377 20.5223C30.5819 24.3221 36.0083 32.0255 38 36.1595V47.0784C38 46.846 37.9106 47.1086 37.7181 47.6744C36.6786 50.7379 32.6182 62.6942 23.3336 53.1359C18.4447 48.1034 20.708 43.0709 29.607 41.5515C24.5161 42.4205 18.7926 40.9844 17.2224 35.3537C16.77 33.734 16 23.757 16 22.4095C16 15.6596 21.8981 17.7812 25.5377 20.5223ZM50.4623 20.5223C45.4181 24.3221 39.9917 32.0255 38 36.1595V47.0784C38 46.846 38.0894 47.1086 38.2819 47.6744C39.3214 50.7379 43.3818 62.6942 52.6664 53.1359C57.5553 48.1034 55.292 43.0709 46.393 41.5515C51.4839 42.4205 57.2074 40.9844 58.7776 35.3537C59.23 33.734 60 23.757 60 22.4095C60 15.6596 54.1026 17.7812 50.4623 20.5223Z" fill="#0085FF"/>
</g>
</g>
<defs>
<clipPath id="clip0_269_8988">
<rect width="75" height="75" fill="white"/>
</clipPath>
<clipPath id="clip1_269_8988">
<rect width="44" height="39.1875" fill="white" transform="translate(16 17.9062)"/>
</clipPath>
</defs>
</svg>
