<svg width="75" height="75" viewBox="0 0 75 75" fill="none" xmlns="http://www.w3.org/2000/svg">
<path d="M35.6079 74.9616C27.3124 74.2503 21.1541 72.0529 15.2054 67.6817C5.5547 60.5901 0 49.5585 0 37.4837C0 18.8895 13.1335 3.49799 31.593 0.458975C39.1282 -0.781539 47.4728 0.520556 54.4529 4.02601C71.4233 12.5486 79.1796 32.2023 72.7563 50.405C68.3463 62.9021 56.7691 72.4272 43.5174 74.4611C40.9104 74.8613 37.186 75.0969 35.6079 74.9616Z" fill="#888888"/>
<path d="M50.6641 23.9512H23.1641C20.9891 23.9512 19.4316 25.498 19.4141 27.7012V47.7012C19.4141 49.9043 20.9891 51.4512 23.1641 51.4512H50.6641C52.8391 51.4512 54.4141 49.9043 54.4141 47.7012V27.7012C54.4141 25.498 52.8391 23.9512 50.6641 23.9512ZM50.6641 31.4512L36.9141 40.2012L23.1641 31.4512V27.7012L36.9141 36.4512L50.6641 27.7012V31.4512Z" fill="white"/>
</svg>
