<svg width="75" height="75" viewBox="0 0 75 75" fill="none" xmlns="http://www.w3.org/2000/svg">
<path d="M35.6079 74.9616C27.3124 74.2503 21.1541 72.0529 15.2054 67.6817C5.5547 60.5901 0 49.5585 0 37.4837C0 18.8895 13.1335 3.49799 31.593 0.458975C39.1282 -0.781539 47.4728 0.520556 54.4529 4.02601C71.4233 12.5486 79.1796 32.2023 72.7563 50.405C68.3463 62.9021 56.7691 72.4272 43.5174 74.4611C40.9104 74.8613 37.186 75.0969 35.6079 74.9616Z" fill="#3B5998"/>
<path fill-rule="evenodd" clip-rule="evenodd" d="M32.1631 56.25H38.9861V37.5092H44.1045L45.1168 31.6533H38.9861V27.41C38.9861 26.0421 39.8706 24.6058 41.1347 24.6058H44.619V18.75H40.3488V18.7762C33.6674 19.0187 32.2947 22.8883 32.1756 26.9529H32.1631V31.6533H28.75V37.5092H32.1631V56.25Z" fill="white"/>
</svg>
