<svg width="75" height="75" viewBox="0 0 75 75" fill="none" xmlns="http://www.w3.org/2000/svg">
<path d="M35.6079 74.9616C27.3124 74.2503 21.1541 72.0529 15.2054 67.6817C5.5547 60.5901 0 49.5585 0 37.4837C0 18.8895 13.1335 3.49799 31.593 0.458975C39.1282 -0.781539 47.4728 0.520556 54.4529 4.02601C71.4233 12.5486 79.1796 32.2023 72.7563 50.405C68.3463 62.9021 56.7691 72.4272 43.5174 74.4611C40.9104 74.8613 37.186 75.0969 35.6079 74.9616Z" fill="#BD081C"/>
<path fill-rule="evenodd" clip-rule="evenodd" d="M37.5 17.5C26.4551 17.5 17.5 26.4644 17.5 37.5207C17.5 45.7616 22.4756 52.8392 29.5813 55.9126C29.5302 54.5169 29.58 52.8525 29.9329 51.3434C30.3209 49.7146 32.5182 40.3948 32.5182 40.3948C32.5182 40.3948 31.8764 39.1103 31.8764 37.2141C31.8764 34.2395 33.6022 32.0132 35.7471 32.0132C37.5733 32.0132 38.456 33.3889 38.456 35.0328C38.456 36.8693 37.2853 39.6162 36.6809 42.1606C36.1804 44.2917 37.7529 46.0317 39.8524 46.0317C43.6524 46.0317 46.212 41.1426 46.212 35.3469C46.212 30.9454 43.2533 27.6474 37.8627 27.6474C31.776 27.6474 27.9787 32.193 27.9787 37.2715C27.9787 39.0213 28.496 40.2577 29.3053 41.212C29.6764 41.6512 29.7267 41.8282 29.5911 42.3341C29.4933 42.7016 29.2773 43.5914 29.1844 43.9469C29.0516 44.4554 28.6378 44.6338 28.1787 44.4469C25.376 43.3031 24.0676 40.2284 24.0676 36.7728C24.0676 31.0638 28.8769 24.2194 38.4133 24.2194C46.0791 24.2194 51.1218 29.7722 51.1218 35.7282C51.1218 43.6145 46.7431 49.5006 40.2916 49.5006C38.124 49.5006 36.084 48.3274 35.3893 46.998C35.3893 46.998 34.22 51.6232 33.976 52.5202C33.5547 54.0466 32.7431 55.5718 31.9911 56.7726C33.7391 57.2726 35.5871 57.5413 37.5 57.5413C48.5449 57.5413 57.5 48.577 57.5 37.5207C57.5 26.4644 48.5449 17.5 37.5 17.5Z" fill="white"/>
</svg>
