<svg width="75" height="75" viewBox="0 0 75 75" fill="none" xmlns="http://www.w3.org/2000/svg">
<path d="M37.5 75C58.2107 75 75 58.2107 75 37.5C75 16.7893 58.2107 0 37.5 0C16.7893 0 0 16.7893 0 37.5C0 58.2107 16.7893 75 37.5 75Z" fill="#25D366"/>
<path fill-rule="evenodd" clip-rule="evenodd" d="M49.7183 24.1891C46.314 20.6834 41.775 18.75 36.9473 18.75C27.0028 18.75 18.8944 27.0786 18.8944 37.3406C18.8944 40.6126 19.7197 43.8209 21.3084 46.6254L18.75 56.25L28.3231 53.6579C30.964 55.1451 33.935 55.91 36.9473 55.91C46.8918 55.91 55 47.5815 55 37.3194C55 32.369 53.1225 27.6947 49.7183 24.1891ZM36.9473 52.7869C34.2445 52.7869 31.6036 52.0432 29.3135 50.6409L28.7564 50.301L23.0826 51.8307L24.5887 46.1366L24.238 45.5417C22.7319 43.0772 21.9479 40.2301 21.9479 37.3194C21.9479 28.7996 28.6945 21.8733 36.9679 21.8733C40.9704 21.8733 44.746 23.488 47.5726 26.3987C50.3991 29.3095 51.9671 33.1976 51.9671 37.3194C51.9465 45.8605 45.2205 52.7869 36.9473 52.7869ZM45.1792 41.2075C44.7254 40.9737 42.5178 39.8477 42.1051 39.699C41.6925 39.5502 41.383 39.4653 41.0942 39.9327C40.7847 40.4001 39.9389 41.4413 39.6706 41.7599C39.4024 42.0786 39.1547 42.0999 38.7009 41.8661C38.247 41.6325 36.8027 41.1437 35.0697 39.5715C33.7286 38.3393 32.8209 36.8095 32.5526 36.3634C32.2844 35.8959 32.532 35.6409 32.759 35.4072C32.9652 35.1947 33.2129 34.8549 33.4398 34.5999C33.6668 34.3236 33.7492 34.1324 33.8937 33.835C34.0381 33.5163 33.9763 33.2614 33.8525 33.0276C33.7493 32.7939 32.8415 30.4993 32.4701 29.5858C32.0988 28.6721 31.7274 28.7996 31.4591 28.7784C31.191 28.7571 30.9021 28.7571 30.5926 28.7571C30.2831 28.7571 29.8086 28.8634 29.396 29.3307C28.9834 29.7981 27.8074 30.9242 27.8074 33.1976C27.8074 35.4923 29.4166 37.6806 29.6436 37.9993C29.8705 38.318 32.8209 42.9922 37.3393 45.0106C38.4121 45.4992 39.258 45.7755 39.9181 45.988C40.991 46.3491 41.9814 46.2854 42.7654 46.1791C43.6319 46.0517 45.4269 45.0531 45.8189 43.9695C46.1903 42.886 46.1903 41.9511 46.0871 41.7599C45.9426 41.5688 45.6331 41.4412 45.1792 41.2075Z" fill="white"/>
</svg>
